<svg xmlns="http://www.w3.org/2000/svg" viewBox="0 0 159.7 167.1"><defs><style>.a{fill:#e9621a}.b{fill:none}.c{fill:#fff}.d{fill:#10354b}</style></defs><path class="a" d="M82.4 6.9C43.7-8.2 20.2 30.7 11.5 46.4c-13.2 24-11.8 71.9 26.9 87s78.6 5.8 93.7-32.9c7.6-19.3-2-40.2-9.7-57.8s-20.7-28.3-40-35.8z"/><path class="b" d="M43.8 6.6h.7l.4-.6h-.7l-.4.6zM76.5 4.4l.7-.1a3 3 0 01.7-.1l-1.2-1c-.4.2-.9.2-1.3.3l1 .9zM44 138a3 3 0 00-.7 0 5.2 5.2 0 00.5.5h.7l-.5-.5zM46.3 139.3l-.5-.5a3.1 3.1 0 00-.6-.5c-.1 0-.5.2-.7.1.3.1.4.4.6.5l.5.4a4.8 4.8 0 00.7 0zM53.8 135.4a5.2 5.2 0 00.6.4 4 4 0 00.6-.2s-.6-.3-.5-.4l-.7.2zM42.1 13.6a3.3 3.3 0 00-.6 0 4.4 4.4 0 00-.4.7l.7-.2.3-.5zM127.6 104.1l.6-.4a5 5 0 000-.7l-.6.5a4.8 4.8 0 010 .6zM128.6 112.5a4 4 0 00.1-.7l-.6.4v.7a4.4 4.4 0 00-.2.7l.6-.5a4.3 4.3 0 01.1-.6zM118.4 40.5v-.7a5.7 5.7 0 00-.5-.4v.7a3.5 3.5 0 01.5.4zM88.6 10.1h-.7c.2.1.2.5.4.6h.7l-.4-.6zM133.6 65a4 4 0 00-.4-.5 3.4 3.4 0 01-.5-.6v-.7l-.4-.5a4.7 4.7 0 00-.5-.5l-.5-.5v.7c0 .2.4.3.5.5s-.2.5-.1.7l.5.5c0 .2.4.4.4.6a3.2 3.2 0 010 .6v.4a2 2 0 000 .3 3.6 3.6 0 00.4.6 3.4 3.4 0 000-.7v-.4a2 2 0 000-.3c.2 0 .5.4.6.5V65zM90 11.7a1.6 1.6 0 00.1.3l.3.2h.6a3.8 3.8 0 00-.4-.5h-.7zM111 27c0 .1.4.1.5.3 0-.2 0-.5-.2-.7a3.7 3.7 0 00-.6-.3l.1.4.1.3zM111.7 28c.2.1.1.4.2.6a5 5 0 00.7.3 3.7 3.7 0 00-.2-.7 3 3 0 00-.2-.6c-.1-.2-.6-.2-.7-.3.2.1.1.5.2.6zM119.3 33.4a3.5 3.5 0 000 .7l.1.7c.1 0 .5.5.6.4a3.4 3.4 0 000-.7 4 4 0 00-.2-.7l-.5-.4z"/><path class="a" d="M81.2 136.2l-.7-.2.6-.4a3.9 3.9 0 00-.6-.2 4 4 0 00-.6.3 3.6 3.6 0 00-.6.4l.7.2c.2 0 .4.3.6.2a2.7 2.7 0 00.6-.3zM129.5 69c0-.2-.4-.3-.4-.5v-.7a3.3 3.3 0 00-.4-.5 3.2 3.2 0 000 .7c0 .1-.2.5-.1.6a3.5 3.5 0 00.4.6l.4.5.1-.7zM9.3 93a4.1 4.1 0 00.1-.7l-.3-.5s.2-.5.1-.7l-.4-.5-.1.6-.2.7.4.5.4.5zM115.5 120.7a4.3 4.3 0 00-.6.2c-.2.1-.1.5-.2.6a5.3 5.3 0 01.6-.2l.2-.6zM10.9 98.7a2 2 0 000-.3V98c0-.2-.4-.3-.4-.4a4.5 4.5 0 01-.1.6 4.1 4.1 0 00.5.5z"/><path class="a" d="M90.6 11.7h.7c.2 0 .3.5.4.6a4 4 0 00.7 0H94.5l.7.1a4 4 0 01.7 0c.1.2.2.5.4.6l.7.1c.2.1.3.6.4.6h.7a3 3 0 00.6.2l-.4-.6h.7l-.4-.5a3.4 3.4 0 01.7.1l.7.1.8 1.2s-.6-.2-.7-.1a4.6 4.6 0 00.4.6 3.5 3.5 0 00.4.6l.7.1a3.8 3.8 0 01.4.6l.3.6a3.2 3.2 0 00.7.2 4.2 4.2 0 00-.3-.7 3 3 0 00-.4-.6c.2.1.5 0 .7.2a4.3 4.3 0 01.3.6 3 3 0 00.4.6l.3.6c.1.1.6 0 .7.2l.4.6a3.4 3.4 0 00.6.2 3.9 3.9 0 01.7.2c.1 0 .6 0 .7.2l.3.6.7.2.7.3 1.3.4c0 .1.4.6.3.7s-.7-.3-.7-.3l.3.7c0 .1-.6-.3-.7-.2s.3.5.3.6l.3.7.7.2a3.7 3.7 0 00.6.3l.7.3a4.7 4.7 0 00.2.6 3.6 3.6 0 00.3.7c0 .2 0 .5.2.7a3.3 3.3 0 00.6.3l.7.3.6.3a3.5 3.5 0 01.6.3 3.4 3.4 0 01.2.7 4.3 4.3 0 01.2.7l-.6-.4a5 5 0 00.2.7 4.2 4.2 0 00.6.4 3.8 3.8 0 01.6.3c.1.1.5.2.6.4l.2.7a6.4 6.4 0 00.6.3l.6.4 1.2.8.2 1.4a4 4 0 01.1.7l-.5-.4a3.5 3.5 0 000 .7l.2.7s.4.5.5.4a3.4 3.4 0 000-.7 4 4 0 00-.2-.7c.2.2.5.2.6.4a3.5 3.5 0 01.1.7 5.4 5.4 0 00.1.7 2.7 2.7 0 00.6.5 4 4 0 01.5.4 3 3 0 010 .7 4.2 4.2 0 00.1.7l.6.5a3.6 3.6 0 010 .7 3.4 3.4 0 000 .7 3.8 3.8 0 00.5.5l.5.4a3.3 3.3 0 01.6.5v.7c0 .2.4.3.5.5v.7c0 .3.5.3.5.4a3.3 3.3 0 010 .7 4 4 0 000 .7 3.7 3.7 0 00.5.5l.6.5a3 3 0 01.5.4 5.5 5.5 0 010 .7 3.3 3.3 0 000 .7 4.5 4.5 0 00.5.5l.5.5a3.3 3.3 0 01.5.4 2.7 2.7 0 010 .7 3.3 3.3 0 010 .7l-.5-.4a4 4 0 000 .7v.7c0 .2.4.3.5.4v.7a3.3 3.3 0 00.5.5 2.8 2.8 0 01.5.5v.7c0 .2.4.3.5.5v.7c0 .2.4.3.5.5v.7c0 .2.4.3.5.5v.7a2.8 2.8 0 00.5.5 4.6 4.6 0 01.5.5v.7a4 4 0 00.4.5 3 3 0 01.5.5v.7c0 .2.4.4.4.5v.7c0 .2.4.3.5.5s-.2.6 0 .8a3 3 0 00.4.5l.4.5.5.6-.1 1.4-.5-.6a5.6 5.6 0 01-.5-.5l.1-.7a4 4 0 00-.5-.5 3.4 3.4 0 01-.4-.6v-.7l-.4-.5a4.7 4.7 0 00-.5-.5l-.5-.5v.7c0 .2.4.3.4.5v.7c0 .2.4.3.4.5s.4.3.5.5a3.2 3.2 0 010 .7v.4a2 2 0 000 .3 3.6 3.6 0 00.4.6 3.4 3.4 0 000-.7v-.4a2 2 0 000-.3l.5.5a4.2 4.2 0 010 .7s-.2.6-.1.7a3 3 0 00.4.5l.4.6.1-.7c.1 0 .4.6.5.5l-.2 1.4-.1.7.8 1.2.5.5a3.5 3.5 0 01.4.6 5 5 0 01-.2.7l-.4-.6-.1.7-.4-.5-.2.7v.7c0 .2.3.3.3.5l-.2.7.4.6c.1.1.2-.7.2-.7a4.6 4.6 0 01.4.6l-.2.7a6.9 6.9 0 00.4.6l.4.6.3.6.7 1.3s0 .7-.2.7a5.1 5.1 0 01-.3-.7 3.5 3.5 0 00-.4-.6s0 .7-.2.7-.3-.7-.3-.6l-.2.7.3.6a3.8 3.8 0 00.4.6l.2-.7a3.4 3.4 0 01.3.7 4.2 4.2 0 01.4.6 5.2 5.2 0 01-.3.7 4 4 0 00-.2.7 3.5 3.5 0 00.3.6l.3.7-.3.7a4.2 4.2 0 00-.2.6 5.7 5.7 0 00-.4-.6 4 4 0 00-.2.6c0 .3-.2.5-.3.7l.5 1.3a3.1 3.1 0 01.2.7l-.3.6.3.7-.4.7a3.5 3.5 0 00.2.7l.2.7a3.7 3.7 0 01.2.7 4.4 4.4 0 01.2.7c0 .2-.3.4-.4.6 0 0 0 .8.1.7 0 0-.3.7-.4.6a3.9 3.9 0 01-.1-.7 4.1 4.1 0 00-.1-.7l-.5.6v-.7l-.5.6.2 1.4a4.7 4.7 0 00.2.7l.1.8.4-.6a3.6 3.6 0 01.1.7c0 .2-.4.4-.4.6v.7c0 .2-.4.4-.4.6a4.4 4.4 0 000 .7v.8l-1 1v-.7l-.4.6v-.7l-.5.5-.5.5V103.7a3.5 3.5 0 010 .7 4.7 4.7 0 01-.5.5 4.1 4.1 0 00-.6.5 4.3 4.3 0 000 .7 3.4 3.4 0 010 .7 3.4 3.4 0 01-.5.5 4.7 4.7 0 00-.6.5 3.5 3.5 0 000 .7 4.1 4.1 0 010 .7l-.6.4-.5.5-.1.7v.7c0 .2-.5.3-.6.4l-.2.7a4.3 4.3 0 01-.5.4 4.3 4.3 0 010-.7 4 4 0 00.2-.7l-.6.5-.1.7a4.4 4.4 0 00-.1.7l.6-.5a2.9 2.9 0 01-.2.8 4.3 4.3 0 000 .7l.5-.5a3.6 3.6 0 010 .8c-.2.1-.6.2-.7.4s-.5.2-.6.4l-.1.7-.7.4a5 5 0 01.2-.7 4.3 4.3 0 00.1-.7l.2-.7-.6.4.1-.7-.6.3-.2.7a4.7 4.7 0 000 .7l.5-.4a4 4 0 01-.1.7l-.2.7a3.1 3.1 0 01-.1.7 4.5 4.5 0 01-.6.4l.1-.7a5.5 5.5 0 00-.6.4c-.1.2 0 .5-.2.7l-.6.3c-.1.1 0 .6-.2.7l-.6.4c-.1.2 0 .5-.2.7l-.7.3a4 4 0 00-.2.6l-.2.7-.2.7-.3.7a3 3 0 01-.2.7 4.7 4.7 0 01-.7.3l.2-.7a3.6 3.6 0 00-.6.3 3.5 3.5 0 00-.7.3l-.7.2a3.2 3.2 0 00-.2.7 6.3 6.3 0 01-.3.7l-.3.6-.3.7a6.8 6.8 0 01-.3.6 4.2 4.2 0 01-.7.3 4.8 4.8 0 01.3-.7 3.8 3.8 0 00.3-.7l-.7.3s.4-.6.3-.7-.6.3-.7.3l-.3.6a3.5 3.5 0 01-.3.7 4.3 4.3 0 01-.7.2 7.2 7.2 0 00-.7.2 3.5 3.5 0 00-.3.6l-.4.6a4.5 4.5 0 01-.3.6l-.7.2a3.6 3.6 0 00-.4.6 3.6 3.6 0 01-.4.6c-.1.1-.5 0-.7.2l-.4.6-.7.1c-.2.1-.3.6-.4.6a3.1 3.1 0 01-.7.1 3.9 3.9 0 00-.7.1l-.7.1a5.4 5.4 0 00-.5.6 3.9 3.9 0 01-.4.6 3.6 3.6 0 01-.7 0 4.3 4.3 0 00-.8.1l-.4.6a3 3 0 01-.7 0 4.3 4.3 0 00-.7 0 3.3 3.3 0 00-.5.6l-.5.5a3.8 3.8 0 00-.5.6l-.5.5a3.5 3.5 0 00-.7 0h-.7c-.2 0-.3.4-.5.5l-.5.5c-.2.1-.7 0-.8 0a4 4 0 00-.5.5l-.5.5-.5.5a4.3 4.3 0 01-.6.4 4.3 4.3 0 01-.7 0 3.7 3.7 0 01-.7 0l.5-.5a4.6 4.6 0 00-.7 0 4.3 4.3 0 00-.7-.2c-.2 0-.4.4-.6.5s-.6-.2-.7-.1a3.7 3.7 0 00-.6.4l-.5.5a7 7 0 01-.6.4c-.1 0-.4.4-.6.4h-.7l-.6.3c-.5 0-1-.2-1.4-.3a3.3 3.3 0 01-.7-.1l.5-.4c0-.1-.6 0-.7-.2s-.5 0-.7-.1l-.5.4a4.9 4.9 0 00-.6.4l.7.1a3.4 3.4 0 01-.6.4l-.8-.2c-.3 0-.3.4-.6.4l-.7-.2a3.3 3.3 0 00-.6.4 5 5 0 01-.6.3 3 3 0 01-.7-.2l-.7-.2a3.7 3.7 0 00-.7-.2 4.3 4.3 0 00-.6.3 6 6 0 00-.6.4 3.7 3.7 0 00.7.2l-.7.3a4 4 0 01-.7-.2l-.7-.3-.6-.2-.7-.3-.7-.2-.6.3.6.2a3.5 3.5 0 01.7.3l.7.2-.6.3-.7.4-1.4-.6a4 4 0 00-.6-.3l-.7-.2-.6.2-.7.3-.7-.3-.6.3c-.2 0-.5-.4-.7-.3l-.6.2a3 3 0 01-.7-.3 4.9 4.9 0 00-.6-.3l-.7.2a3.4 3.4 0 01-.6-.3 6.5 6.5 0 00-.7-.4 4.4 4.4 0 00-.7.3l.7.3a3.2 3.2 0 01-.7.2 3.2 3.2 0 01-.7.2l-.6-.3-.7.2-.6-.4s.7 0 .7-.2a3.5 3.5 0 00-.7-.3c-.1 0-.4-.4-.6-.4a3.8 3.8 0 00-.7.2 6 6 0 01-.7.2 2.9 2.9 0 01-.6-.4 5.6 5.6 0 00-.6-.4 3 3 0 00-.7.2l-.6.2a4.5 4.5 0 01-.7.1l-.6-.4a3.1 3.1 0 00-.7.2l-.7.1-.6-.4a4 4 0 01-.6-.4l.7-.1a3.2 3.2 0 00-.6-.4l-.7.1c-.2 0-.4-.3-.6-.4l-.6-.4H51c-.2 0-.4-.3-.6-.4s-.5.2-.7.2-.5-.5-.6-.5a4.5 4.5 0 00-.7.1l-.7.1-.7.1a2.7 2.7 0 01-.7.1c-.2 0-.3-.4-.5-.4a4.8 4.8 0 00.7-.1l-.6-.5a3.1 3.1 0 00-.5-.4h-.7l-.7-.3a3 3 0 00-.7 0 5.2 5.2 0 00.5.5h.7l.6.4.5.5H45c-.2 0-.3-.3-.5-.4s-.5.1-.7 0l-.6-.4h-.7c-.2 0-.3-.3-.5-.4s-.5.1-.7 0l-.6-.4-.5-.5a4.2 4.2 0 00-.7 0 5.6 5.6 0 01-.7 0 3.5 3.5 0 01-.5-.5 6 6 0 00-.5-.5c-.2 0-.4-.4-.5-.5h-.8l-.5-.5h.7l-.5-.5H34a3.5 3.5 0 01-.7 0 4.3 4.3 0 01-.7 0l-.5-.6h-.8l-.4-.6a4.1 4.1 0 01-.5-.6l.7.1c0-.1-.5-.5-.4-.6s.6.2.7 0-.5-.4-.5-.5l-1.4-.2a4.7 4.7 0 01-.7 0l-.4-.7h-.7c-.3 0-.6 0-.8-.2l-.4-.6a3.9 3.9 0 00-.7-.1l-.7-.2a4 4 0 01-.7-.1 5 5 0 01-.4-.6 6.4 6.4 0 00-.4-.7 3.6 3.6 0 00-.7-.2 5 5 0 00-.3-.6c-.2-.1-.6 0-.7-.2l-.4-.7c-.2-.2-.5 0-.7-.2l-.3-.6-.3-.7a3.7 3.7 0 00-.7-.2 5.1 5.1 0 01-.7-.3 4 4 0 01-.3-.7l-.3-.6a3.6 3.6 0 00-.6-.3c-.1 0 .3.6.2.7s-.5-.3-.7-.3a6.3 6.3 0 01-.6-.3 4.3 4.3 0 01-.7-.3 6.4 6.4 0 01-.3-.7 4.6 4.6 0 00-.2-.7c0-.1-.6-.2-.7-.4l-.2-.7a4 4 0 00.6.4l.6.3-.4-1.4c-.1-.1-.5-.1-.6-.3l-.2-.7a3.7 3.7 0 00-.7-.3 3.8 3.8 0 01-.6-.4c-.1-.1-.5-.2-.6-.4l-.2-.7c-.2-.1-.5-.2-.6-.4a4.3 4.3 0 01-.2-.7l-.1-.7a6 6 0 00-.1-.7 3.2 3.2 0 00-.6-.4l-.6-.5a3.1 3.1 0 01-.6-.4l-.1-.7-.6-.5a3.3 3.3 0 010-.7 3.6 3.6 0 00-.1-.7l-.6-.5v-.7c0-.2-.6-.4-.6-.5a5 5 0 010-.7l.5.5a4.6 4.6 0 000-.8 4 4 0 00-.5-.5 4.1 4.1 0 01-.6-.4v-.8a4 4 0 00-.5-.5 6 6 0 000 .8c0-.3-.4-.3-.5-.6a4.5 4.5 0 010-.7 3.5 3.5 0 010-.7l.5.5a5.8 5.8 0 000-.7 4 4 0 00-.5-.5 6.4 6.4 0 00-.5-.6v.8l-.5-.5v-.8c0-.2-.4-.3-.5-.5s.1-.5 0-.7l-.5-.6v-.7a3.7 3.7 0 00-.4-.6l-.5-.5a3.2 3.2 0 01-.4-.6V98c0-.2-.4-.5-.4-.6a4.3 4.3 0 010-.7l.5.6c0-.2.2-.6.1-.8l-.4-.5c0-.1.2-.5.1-.8l-.4-.5a4.2 4.2 0 01.1-.8 3.5 3.5 0 00.2-.7 3.2 3.2 0 00-.4-.6l-.4-.6a3.6 3.6 0 01-.4-.6c0-.2.2-.4.1-.7L1 90a4.8 4.8 0 01.1-.7 6.7 6.7 0 01.2-.7 4.1 4.1 0 00.3-.6 2.8 2.8 0 00-.4-.6l-.3-.7a3.9 3.9 0 01-.4-.6 4.6 4.6 0 01.3-.7 7 7 0 00.2-.7 4.1 4.1 0 00-.4-.6l-.3-.6a3.6 3.6 0 01-.3-.7 3.4 3.4 0 01.3-.7 5 5 0 00.2-.7c0-.2-.3-.4-.3-.7s.3-.4.3-.6l-.3-.7a3.2 3.2 0 01.2-.7 3.3 3.3 0 00.3-.6l-.3-.7a5 5 0 01.3-.7l.3-.6.3-.7-.2-.6-.3.6-.3-.7-.3-.6a2.9 2.9 0 01-.2-.7l.3-.7-.2-.6c0-.1.3-.4.3-.7l-.2-.7A4.2 4.2 0 010 70a4.7 4.7 0 01.4-.6 3.6 3.6 0 01.2.6c0 .3 0 .5.2.7s.1.5.2.7l.2.7.7-1.3-.2-.7c0-.3.4-.5.3-.6a3.5 3.5 0 00-.2-.7l-.2-.6-.2-.7a3 3 0 01-.1-.7l.3-.6c0-.1-.2-.6-.1-.7l.3-.7c0-.3-.2-.5-.1-.7a3.8 3.8 0 01.4-.6 4.9 4.9 0 00.4-.6 3.8 3.8 0 00-.2-.7 3.6 3.6 0 01-.1-.7l.4-.6a4.8 4.8 0 00-.1-.7l-.1-.7a4.3 4.3 0 01-.1-.7 4.3 4.3 0 01.4-.6 4.6 4.6 0 00.5-.6l.4-.5a3.5 3.5 0 000-.8 6.3 6.3 0 01-.1-.7 3.3 3.3 0 01.4-.5 4.2 4.2 0 01.5-.6 5.4 5.4 0 010 .7c0-.2.4-.3.5-.5a4.3 4.3 0 000-.8 2.8 2.8 0 010-.7c0-.2.4-.3.5-.5s-.1-.6 0-.7l.5-.6a4.1 4.1 0 000-.7 4.3 4.3 0 00-.5.5v-.7a3.2 3.2 0 01.4-.5 6.2 6.2 0 00.5-.5c0-.2.4-.3.5-.5a3.6 3.6 0 000-.7 3.6 3.6 0 010-.8c0-.1.5-.3.5-.5l.1-.7a3.5 3.5 0 01.6-.4l.6-.5.5-.5v.7l.5-.4.1-1.4.1-.7.2-1.4a2.8 2.8 0 010-.7 6.5 6.5 0 01.6-.4 6.4 6.4 0 00.5-.5c.2 0 .5-.2.6-.4l.1-.7c.1-.2.5-.2.6-.4a3.4 3.4 0 000-.7l.2-.7a2.9 2.9 0 010-.7l.6-.4a4.3 4.3 0 00.1-.7l.1-.7.6-.4a3.5 3.5 0 01.6-.4v.7l.5-.4-.1.7a4.8 4.8 0 00.6-.4l.6-.4.2-1.4-.6.4a4.8 4.8 0 01-.6.4s.2-.6.1-.7 0-.5.2-.7a3.2 3.2 0 01.6-.4 3.4 3.4 0 01.6-.4l-.1.7.5-.3a4.2 4.2 0 00.2-.7 4.8 4.8 0 00.1-.7 3 3 0 01.2-.7 3.6 3.6 0 01.6-.4l-.2.7a4.3 4.3 0 00.6-.4 3.3 3.3 0 00.2-.7l.2-.7a4.4 4.4 0 01.6-.3 3.5 3.5 0 01.6-.4 6.8 6.8 0 01-.2.7c.2-.2.5-.2.6-.4a4.2 4.2 0 00.2-.6 5 5 0 01.2-.7l.6-.4.2-.7-.3.2-.3.2.1-.7.7-.3c0-.1 0-.5.2-.7l.6-.4c0-.2 0-.5.2-.6l.6-.4a3.8 3.8 0 00.2-.6l.3-.7a3.2 3.2 0 01.2-.7l.6-.3c.1-.1.1-.6.3-.7l.6-.3.3-.7.6-.3s-.3.6-.2.7-.3.6-.3.7l.7-.3.6-.3c.2-.2.1-.5.3-.7s.6-.2.7-.3a3.7 3.7 0 00.2-.6 2.7 2.7 0 01.3-.7c0-.1.1-.5.3-.7s.6-.1.6-.2a3.4 3.4 0 00.3-.7 3.2 3.2 0 01.3-.6 4.7 4.7 0 01.7-.3l-.3.7a4.3 4.3 0 00.7-.3l.3-.6.7-.2a3.5 3.5 0 00.3-.7l.3-.7a4.8 4.8 0 01.3-.6l.4-.6a4.4 4.4 0 01.7-.2s-.4.5-.3.6-.3.5-.4.6a3 3 0 00-.3.7l.7-.2a4.3 4.3 0 00.7-.2l.7-.2.3-.7a4.6 4.6 0 00.4-.6l-.7.2.3-.6-.7.2a3.5 3.5 0 01.4-.7l.3-.6 1.5-.3-.4.6a4.3 4.3 0 00.7-.2l.4-.6a2.7 2.7 0 01.7-.1l-.4.6a6.3 6.3 0 00.7-.1c.2-.1.2-.5.4-.6a4.2 4.2 0 01.7-.2h.7l.4-.7c0-.2.5-.5.5-.6a6.7 6.7 0 00-.8.1l-.4.6a4.7 4.7 0 01-.7.2c0-.1.5-.5.4-.6l.9-1.2 1.5-.2a5 5 0 01.7-.1h.7s-.5.4-.4.5.5 0 .7 0l.4-.6h-.7l.5-.5.5-.6s-.8.1-.8 0l.5-.5a4 4 0 01.5-.5 5.7 5.7 0 01.7 0 3.9 3.9 0 01.8 0l-.5.4a6.1 6.1 0 00.7 0 3.6 3.6 0 00.5-.5 3.5 3.5 0 01.5-.5c.2-.1.4-.5.6-.5h.7c.2 0 .4-.5.6-.5a3 3 0 01.7 0 5.4 5.4 0 01.8 0 4 4 0 01-.6.5l-.5.5h.7c.2 0 .3-.4.5-.5s.6.1.8 0a6.2 6.2 0 00.5-.5 5.3 5.3 0 00.6-.4l.6-.5a3.4 3.4 0 01.6-.4 4.7 4.7 0 01.7 0 4.6 4.6 0 00.7.2l.7-.4a3.8 3.8 0 01.7.2 4.2 4.2 0 00.7.1 7.3 7.3 0 00.6-.4 3.5 3.5 0 01.7-.3A4 4 0 0160 0l.7.2.7-.4a2.8 2.8 0 01.7.3l.7.2-.7.3-.7-.2a3.6 3.6 0 00-.6.4l-.6.3.7.2.7.2c.3 0 .5-.3.6-.3A3.6 3.6 0 0063 1a5 5 0 01.7-.3l.6-.3A4 4 0 0165 0c.3 0 .5.2.7.3l.7-.3.6.3a4.2 4.2 0 01.7.3l.6.4-.6.2.6.3.7-.2a4.3 4.3 0 00.7-.2 3.5 3.5 0 01.7-.2 5.8 5.8 0 01.6.4l-.7.2a3.5 3.5 0 00.7.3 4.3 4.3 0 00.7-.2 6.4 6.4 0 00.7-.2 4.4 4.4 0 01.7-.1 4.1 4.1 0 01.6.4 5 5 0 00.6.4 4.7 4.7 0 00.6.4l.7-.2a2.6 2.6 0 01.6.5l.5.4-1.3.2 1 .9.8-.1a3 3 0 01.7-.1l.5.4h.7c.2 0 .4.4.6.4h.7c.3 0 .4-.2.7-.1s.3.4.5.5l1 1h-.7a3.3 3.3 0 00-.7 0l.5.6h-1.4a3.7 3.7 0 01-.6 0c-.2 0-.6.2-.7.1l-.5-.4a6.5 6.5 0 00-.7 0l-.7.2-.6.1a4.2 4.2 0 01-.7.1l-.5-.4-.7.1-.6.2c-.2 0-.4-.4-.5-.4a2.5 2.5 0 00-.7.2 3.4 3.4 0 01-.6.1s-.5-.4-.6-.3a2.1 2.1 0 00-.6.2l.6.3-.7.2a3.2 3.2 0 01-.5-.3l-.6-.4-.5-.3-.6-.4-.6.3a6.6 6.6 0 00.6.3 5.7 5.7 0 01.5.3 4 4 0 01-.6.2 6.2 6.2 0 01-.6.3l-.6-.3-.5.2-.6-.3-.6.3-.6-.3c-.2 0-.3.3-.6.3s-.3.3-.5.3l-.6-.2-.6.3-.6-.3.6-.3c0-.1.6-.2.5-.3l-.6-.3-.6-.2-1.1.6a2.7 2.7 0 01-.6.4 6.5 6.5 0 01-.6-.2 2 2 0 00-.6-.2 3.3 3.3 0 00-.5.4 3.2 3.2 0 01-.5.4l-.7-.2c-.2 0-.3.4-.5.4l-.6-.1c-.2 0-.5-.2-.7-.1l-.4.4c-.1 0-.5-.2-.7-.1a2.5 2.5 0 00-.5.4 3.4 3.4 0 01-.4.5c-.1 0-.6-.2-.7-.1a4 4 0 00-.5.5l-.4.4a2.9 2.9 0 01-.3 0 1.8 1.8 0 01-.3 0 5 5 0 01.4-.5 2 2 0 00-.7-.1 3.3 3.3 0 00-.4.5 5.2 5.2 0 01-.4.5 2.8 2.8 0 01-.7 0 3.8 3.8 0 00-.6 0h-.7c-.2 0-.3.4-.4.5a5.5 5.5 0 00-.4.5 3.3 3.3 0 01-.4.5h-.7a4.6 4.6 0 00-.6 0 3.1 3.1 0 00-.4.6l-.4.6a3.3 3.3 0 01-.3.5 3.7 3.7 0 01-.7 0 3.7 3.7 0 00-.6.2l-.4.5a5.2 5.2 0 01-.6.1 3.6 3.6 0 01-.7.1s.4-.5.3-.6a3.3 3.3 0 00-.6.2 4.4 4.4 0 00-.4.5c0 .1.7-.2.7 0l-.3.5a4.8 4.8 0 01-.3.6 3.2 3.2 0 01-.4.5 2.9 2.9 0 01-.6.2l-.7.1-1.3.3-.3.6.7-.1-.3.6s.6-.3.7-.2-.4.5-.3.6-.3.6-.3.6l-.6.2.2-.6-.6.1a3.8 3.8 0 00-.7.2l-.6.2-.6.2-.7.2-.3.6.7-.2a3.4 3.4 0 01-.3.6 3.2 3.2 0 01-.2.7s-.6 0-.6.2l-.3.6a3.2 3.2 0 01-.6.2l.2-.6a3.4 3.4 0 00-.6.2l-.6.3-.3.6a5.4 5.4 0 00-.2.6l.6-.2a5.2 5.2 0 01-.2.6 4.8 4.8 0 01-.2.7l-.6.2a2.8 2.8 0 00-.6.3 3 3 0 00-.2.6l-.2.7-1.2.5a5.5 5.5 0 01-.7.3l-.6.3.2-.6-.6.2-.6.4s-.3.5-.2.6.6-.4.6-.3l-.2.6a6.3 6.3 0 01-.1.7 4.5 4.5 0 01-.2.7l-.6.3a3.5 3.5 0 00-.6.3 3.1 3.1 0 00-.1.6 3.5 3.5 0 01-.2.7l-.1.7c-.1.2-.6.2-.6.3a4 4 0 00-.2.7v.6l-.2.7-1.2.7.1-.7c.1-.2.6-.2.6-.4a4 4 0 00.2-.6v-.7l-1.1.7-.1.7a5 5 0 01-.1.6l-.6.4a3.5 3.5 0 00-.2.7v.6a4 4 0 01-.2.7 3.5 3.5 0 01-.5.4 4.2 4.2 0 01-.6.3v-.6a2.7 2.7 0 00-.5.3v.7l-.7.4a3.8 3.8 0 000 .7l.5-.4v.7c0 .2-.6.2-.7.3a3.8 3.8 0 000 .7 4 4 0 00-.1.7 5 5 0 010 .6 5.2 5.2 0 01-.7.4l.1-.6.1-.7a3.8 3.8 0 00-.6.4 5.2 5.2 0 00-.5.4l-.1.7a4 4 0 000 .6 3.3 3.3 0 01-.2.7 4.8 4.8 0 01-.5.4 5.4 5.4 0 010-.7c0 .2-.4.2-.5.4v.7l-.6.4a3.3 3.3 0 000 .7l-.1.7a3.2 3.2 0 010 .7l-.6.4v.7c0 .2-.5.2-.6.4v.6c0 .2-.4.2-.5.4v.7a1.5 1.5 0 01-.3.2 1.2 1.2 0 01-.2.2 3.6 3.6 0 010-.7l-.5.5v.6l-.5.5v.6c0 .2-.5.4-.5.5a2.9 2.9 0 000 .6v.7a3.7 3.7 0 010 .7 2.6 2.6 0 01-.5.4l-.4.5-.5.5V55l-.5.5v.7a4 4 0 00.1.6l.5-.5a3 3 0 010 .7c0 .2-.4.3-.4.5l.1.7c0 .3-.4.3-.4.5a3.5 3.5 0 000 .6 2.9 2.9 0 01.2.7 4.2 4.2 0 01-.4.5 3.2 3.2 0 00-.4.6 3.6 3.6 0 000 .6 3 3 0 01.2.7 3.6 3.6 0 01-.4.5 3.5 3.5 0 00-.4.5c0 .2-.3.4-.4.6s.2.5.2.6a3.3 3.3 0 00.1.7 6 6 0 01.2.6c0 .2-.3.4-.4.6s.3.5.2.6l-.3.6a4.6 4.6 0 01-.4.5 3 3 0 00-.4.6 3.1 3.1 0 00.2.6l.2.7.3.6.3-.6.2.7a3.4 3.4 0 01-.3.5 6.3 6.3 0 01-.4.6l-.2-.6-.3.6a5.4 5.4 0 01-.3.6c-.2 0-.3.4-.4.6s.3.4.3.6l-.4.6.3.6a4.3 4.3 0 00.3.6 3.1 3.1 0 01.2.7l-.3.6.3.6-.3.6a2.6 2.6 0 00.3.6 3.6 3.6 0 01.3.6 3.5 3.5 0 01-.3.6 5 5 0 00-.3.6l-.2.6.3.6a4 4 0 01-.3.7l-.2.6.3.6a3.3 3.3 0 00.3.6l.3-.7.2-.6a4.3 4.3 0 01.3.6l.4.6-.5 1.2-.2.7c0 .2.3.3.3.5l-.2.7c0 .2.4.5.4.5a3 3 0 01-.2.7l-.4-.6-.3-.6-.2.7-.2.6.7 1.2a3.5 3.5 0 01.4.5l-.2.7a3.5 3.5 0 00.4.5l.4.6-.2.6v.7c0 .2.3.4.3.5a4.3 4.3 0 00.4.5 3.4 3.4 0 01.4.5 4 4 0 010 .7 3.8 3.8 0 01-.5-.5c0 .1-.2.5-.1.6l.4.5a3 3 0 01.4.5l.5.5-.1.7.4.5v.7c0 .2.3.4.4.4a4 4 0 01.5.5 3.5 3.5 0 01-.1.7 3.8 3.8 0 000 .6c0 .2.4.3.4.5s-.1.5 0 .6l.5.5V104l.5.5a4.2 4.2 0 01.5.4 3.6 3.6 0 010 .6 4.7 4.7 0 01-.5-.4v.7c0 .2.4.3.5.4a4.6 4.6 0 00.5.4 4.7 4.7 0 01.5.4 3 3 0 010 .7 3.6 3.6 0 000 .6l.6.4a5.1 5.1 0 010 .7v.7a3.6 3.6 0 00.1.6 4 4 0 00.6.4s-.2-.7 0-.7.4.3.5.4a5 5 0 01.5.3 5 5 0 01.6.4 4 4 0 010 .6s-.4-.4-.5-.3a2.4 2.4 0 00.1.6 2.9 2.9 0 00.1.7l.6.3.1.7c.1.2.4.1.6.3l-.1-.7a3 3 0 01-.1-.6l.5.3v-.7a3.5 3.5 0 01.5.3l.1.7.1.6-.6-.3a3.1 3.1 0 00.2.7 2.6 2.6 0 00.1.6l.6.3a3.3 3.3 0 01.2.6c0 .3 0 .5.2.7l.5.3.2.6a3 3 0 00.7.2l.6.3.6.2 1.2.4.2.6a3.4 3.4 0 01-.6-.2l-.6-.2.2.6-.6-.2a2.5 2.5 0 00.2.7c.1 0 .5 0 .7.2a3.7 3.7 0 01.2.6l.3.6s.5.3.6.2-.3-.6-.3-.6a2.5 2.5 0 01.7.2 3.1 3.1 0 01.6.2l.3.5a3 3 0 00.3.6 3.5 3.5 0 00.6.2l.6.1a2.9 2.9 0 01.7.2l.1.3a2.8 2.8 0 01.2.3 3.5 3.5 0 01-.7-.2l.3.6.7.1c.2.1.2.5.3.6l.7.1.6.1c.1.1.2.5.4.6h.6c.2 0 .3.5.4.6a3 3 0 00.3.6 3.7 3.7 0 00.7 0 2.7 2.7 0 01.6 0c.2.2.2.5.4.6h.7a2.8 2.8 0 01.4.5 3 3 0 00.4.6 3 3 0 00.7 0h1.3l1.3-.1.9 1h-.7a3.4 3.4 0 00-.6 0l.4.5h-.7a3.1 3.1 0 00.5.5H39.1l.5.5a4.5 4.5 0 00.7 0 5.5 5.5 0 00-.5-.5h.7l.4.5.5.5a3.3 3.3 0 00.7 0c0-.2-.5-.5-.5-.6h.7l-.5-.4a3.5 3.5 0 01.7-.1l.4.5.5.4-.6.1a2.2 2.2 0 00.5.5c.1 0 .3.4.5.4h.6l.5.4a3.3 3.3 0 00.7 0 3.7 3.7 0 01.7-.1l.5.4a3.5 3.5 0 00.5.5c.1 0 .5-.2.7-.1l.5.4c.2 0 .5-.2.6-.1l.6.4a2.1 2.1 0 00.6 0 3.8 3.8 0 01.7-.2l.5.4c.1 0 .5-.2.7-.1l.5.4c.1 0 .6-.2.7-.1a4 4 0 01.5.4 2.8 2.8 0 01.6.4l-.7.1a5.2 5.2 0 00.5.4 4 4 0 00.7-.1l-.5-.4a3.4 3.4 0 01.6-.2 3.1 3.1 0 01.7-.1l.5.4a4.1 4.1 0 00.6.4l.5.4a2.7 2.7 0 00.7-.2 4 4 0 01.6-.2c.2 0 .5.4.6.4a3.4 3.4 0 00.6-.2 4.1 4.1 0 01.7-.2 4 4 0 01.6.4 3.3 3.3 0 00.5.4c.1 0 .6-.3.7-.2a3.7 3.7 0 01.5.3l-.6.2a3.8 3.8 0 00.6.4l.6.3.6-.2.7-.2c.3 0 .5.3.5.3a4.6 4.6 0 00.7-.2l.6-.2.6-.2.7-.3a2.6 2.6 0 01.6-.2 4.8 4.8 0 01.6.3l-.6.2a2.4 2.4 0 00.6.3 3 3 0 00.6.3 3.6 3.6 0 00.6-.2l.6-.3-.6-.3.6-.2.6.2.6.3.6-.3.6.3.6-.3.6.3a3 3 0 00.6-.3 3.6 3.6 0 01.6-.3l.7.3c.3 0 .4-.4.5-.4a3.6 3.6 0 01.7.3l-.6.3a4 4 0 01-.6.3l-.6.3.6.3c.2 0 .5-.4.6-.3l.7.2a3 3 0 00.5-.3l.6-.4a2.8 2.8 0 01.6-.3l.6.2.6-.3.6.2c.2 0 .4-.3.6-.4s.4.3.6.2l.6-.3.7.2a2.1 2.1 0 00.5-.4l.5-.4a3.8 3.8 0 01.6-.4 2.6 2.6 0 01.6.2 3.5 3.5 0 01.7.2l-.6.3.7.2a6.4 6.4 0 00.7.2l1-.9.5-.4a3.1 3.1 0 01.5-.4 4.4 4.4 0 01.7.1l-.6.5a3.7 3.7 0 00.7 0c.2 0 .4-.3.5-.4s.6.2.7.1a2.7 2.7 0 00.5-.4l.5-.4.5-.5.6.1-.5.5h.7l-.5.5-.5.4.7.1.5-.4a3.5 3.5 0 00.5-.5s.5-.4.4-.5h-.6a3.6 3.6 0 01.5-.5l.4-.5h-.6a2.5 2.5 0 01.4-.5l.7.1h.6l-.4.5a2.5 2.5 0 00.7 0 3 3 0 00.4-.5l.4-.5a3.7 3.7 0 01.7 0h1.4a3.7 3.7 0 00.6 0h.7c.2 0 .3-.4.4-.5h.7a2 2 0 00.4-.5 3.7 3.7 0 00.4-.6 3.8 3.8 0 00-.7 0c.2 0 .3-.4.4-.5h1.4c.2 0 .2-.5.4-.6a4 4 0 01.6 0 3.1 3.1 0 00.7 0c.1 0 .2-.6.4-.6l.6-.1a2.6 2.6 0 00.4-.6 6.4 6.4 0 01.3-.5l.7-.1a4.2 4.2 0 00.3-.6l.3-.6a2.9 2.9 0 01.4-.5 3 3 0 01.6-.2 3.4 3.4 0 00.7-.1s.5 0 .6-.2a3.7 3.7 0 00.3-.6 2.6 2.6 0 01.3-.5l.6-.2.3-.6a4.2 4.2 0 01.6-.2l.7-.2a2.5 2.5 0 01.6-.2l-.2.6.6-.2.3-.6a2.8 2.8 0 00.2-.6l.2-.6a3.6 3.6 0 00.7-.3s0-.5.2-.6l.6-.2c.2-.2.5-.1.6-.3a2.8 2.8 0 00.2-.6l.2-.7a2.7 2.7 0 01.6-.2 5.8 5.8 0 00.7-.3 2.6 2.6 0 00.1-.6l.2-.7a4 4 0 01.2-.6 3.4 3.4 0 01.6-.3 3.8 3.8 0 00.6-.3l.1-.7.6-.3a2.3 2.3 0 00.1-.7l.1-.6.2-1.3.6-.4a2.6 2.6 0 01.6-.3l-.1.6a2.6 2.6 0 00.6-.3 2.7 2.7 0 00.5-.4l.1-.7c.1-.2.4-.2.6-.3l.1-1.4v-.6l.6-.4v-.7l-.6.4a3.7 3.7 0 010-.6c.1-.2.5-.3.6-.4v-.7l.5-.4v.7l.5-.5a3 3 0 00.6-.4 3.6 3.6 0 000-.7 5 5 0 010-.6 4.5 4.5 0 01.5-.5 4.8 4.8 0 010 .7l.5-.4a5 5 0 000-.7l-.5.4a3 3 0 010-.6v-.7l.5-.4a3.4 3.4 0 01.5-.5v.7l.5-.5v.7a3 3 0 00.4-.5v-.6l.5-.5v-.7a2.3 2.3 0 000-.7l-.5.5-.5.5v-.7a4.8 4.8 0 010-.6 3.2 3.2 0 01.4-.5l.4-.5.5-.4a4 4 0 00.5-.5 4 4 0 00-.1-.7s-.4.6-.5.5a3.7 3.7 0 010-.6l-.2-.6c0-.2.4-.4.4-.5l-.1-.7c0-.2.3-.3.4-.5l.4-.5-.2-.6.4-.5a3 3 0 01.3-.6l.2.6.4-.5-.2-.6a3.2 3.2 0 00-.2-.7 5.2 5.2 0 00-.4.6l-.2-.6c0-.2.4-.4.4-.6l-.2-.6.3-.6c0-.2.3-.3.3-.5l-.2-.6a3.2 3.2 0 01.3-.6 3.8 3.8 0 00.3-.6 2.5 2.5 0 00-.3-.6l-.3-.6-.6-1.2.3-.6a4.1 4.1 0 01.2-.6l.3.6a3 3 0 00.3-.6l.2-.7.3-.6-.7-1.2a3.7 3.7 0 00-.4-.5l-.3-.6-.2.7a2.9 2.9 0 01-.4-.6c0-.2.3-.4.2-.6l-.3-.6.1-.6.4.5c.1 0 0-.6.2-.6s.4.5.4.5c0-.1.2-.4.1-.6l-.3-.6c0-.2.2-.5.1-.6a2.4 2.4 0 00-.3-.6 5.4 5.4 0 01-.4-.5c0-.2.2-.5.1-.7l-.4-.5c-.1-.2.2-.5.1-.7l-.4-.5.2-.7c0-.2-.4-.3-.4-.5a3.2 3.2 0 010-.7 4.8 4.8 0 01.5.6c0-.2.2-.5.1-.7a2.8 2.8 0 00-.4-.5 3.7 3.7 0 01-.5-.6l.2-.6-.5-.5c0-.1.2-.6.1-.7a3.2 3.2 0 00-.4-.5 3 3 0 01-.5-.5v-.7a3.2 3.2 0 00-.4-.5 3.1 3.1 0 01-.4-.5v-.7c0-.2-.4-.4-.4-.5a3 3 0 010-.7 4 4 0 000-.6 2.2 2.2 0 00-.4-.5l-.5-.5a3.6 3.6 0 01-.5-.5v-.7c0-.2-.4-.3-.5-.5a3 3 0 010-.6 3.1 3.1 0 000-.7v-.7c0-.2-.4-.3-.5-.5v-.7a2.7 2.7 0 00-.4-.4l-.5-.5a3.9 3.9 0 010-.7 4.9 4.9 0 010-.7l.5.5s.4.5.5.4v-.7l-1-.9-.6-.5-.5-.4a2.7 2.7 0 01-.5-.5 5.3 5.3 0 010-.7 2.7 2.7 0 000-.7 3.6 3.6 0 00-.5-.4 4.5 4.5 0 01-.5-.5v-.7l-.5-.5V48c0-.2-.4-.2-.5-.4v-.7a4.5 4.5 0 00-.5-.5 2.7 2.7 0 01-.5-.4v-.7l-.5-.5a4 4 0 010-.7l.5.5s.4.5.5.4v-.7-.7l-1-.8-.5-.5-.5-.4a4 4 0 01-.5-.4 3.9 3.9 0 010-.7 3.2 3.2 0 010-.6 3.5 3.5 0 01.5.4v-.7a5.7 5.7 0 00-.5-.4v.7a4.4 4.4 0 01-.6-.4l-.5-.4v-.7c0-.2-.5-.3-.5-.4a3.9 3.9 0 01-.1-.7l.5.4v-.7s.4.5.5.4-.1-.6 0-.6l-.9-.8a6 6 0 01-.6-.3 3.4 3.4 0 010-.7l.5.3a3 3 0 000-.6l-.6-.4a3.7 3.7 0 01-.6-.3 3.2 3.2 0 01-.1-.7 3.2 3.2 0 00-.1-.7c-.2-.1 0-.5-.2-.6a3 3 0 00-.5-.4 3.1 3.1 0 01-.6-.3c-.2-.1 0-.5-.2-.6l-.6-.3-.1-.7a3.3 3.3 0 00-.6-.3l-.6-.3-.7-.3-.1-.6a2.9 2.9 0 01-.2-.6 4.2 4.2 0 01.6.2 3 3 0 00.6.3l-.2-.6-1.2-.6a4.5 4.5 0 01-.6-.2l-.3-.7a3.6 3.6 0 00-.6-.2 3.3 3.3 0 01-.6-.2 4.1 4.1 0 01-.2-.7 2.8 2.8 0 00-.3-.6c0-.1-.1-.5-.3-.6l-.6-.2c0-.1-.1-.5-.3-.7s-.5 0-.6-.2a6.6 6.6 0 01-.3-.6 3.8 3.8 0 00-.3-.6 5 5 0 00-.6-.2l.3.6a2.9 2.9 0 01-.7-.1l-.3-.6s-.5 0-.6-.2a4.9 4.9 0 01-.3-.6l-.4-.6a3.3 3.3 0 00-.3-.6l-.3-.6a2.5 2.5 0 00-.7-.1l-.6-.2-.4-.6a3.2 3.2 0 01.7.2l.6.1s-.4-.5-.3-.6.6.2.7.1-.4-.4-.4-.6-.3-.4-.4-.6h-.6l.3.5-.7-.1a4.4 4.4 0 01-.6-.1 3.5 3.5 0 00-.7-.1c-.1 0-.6-.2-.7-.1s.4.5.4.6l-1.3-.2-.8-1.2.7.1a3.8 3.8 0 00.7.1l-.4-.6-.4-.5-1.4-.2a5.5 5.5 0 01-.7 0 5.3 5.3 0 01-.4-.6h.7a3 3 0 00-.4-.5h-.7l-.4-.5a3.5 3.5 0 00-.7 0s.5.4.4.5-.5 0-.6 0a4.1 4.1 0 01-.7 0h-.7s-.6-.2-.7 0c0-.2-.5-.5-.4-.6h.7l-.5-.5h.7a3.8 3.8 0 00-.4-.7zm20.1 14.6l.1.4.1.3s.5.1.6.3l.2.6.2.7a5 5 0 00.7.3 3.7 3.7 0 00-.2-.7 3 3 0 00-.2-.6c-.1-.2-.6-.2-.7-.3l-.2-.7a3.7 3.7 0 00-.6-.3z"/><path class="a" d="M82.5 8.2a3.8 3.8 0 00.5.5 4.9 4.9 0 00.7 0l-.5-.5h.7c-.2 0-.3-.4-.5-.5h-.6a3.6 3.6 0 00-.7 0l.5.5z"/><path class="a" d="M84.4 8.6a3.2 3.2 0 00.5.5h.7l.4.5a5.4 5.4 0 01.5.6 4.3 4.3 0 00.5.5h.6l.5.5h.7c.2 0 .3.4.4.5l.5.5h.7L90 12a1.6 1.6 0 01-.2-.3h.7c-.2 0-.3-.4-.4-.5h-.7c-.2 0-.3-.4-.5-.5h-.7c-.2 0-.2-.4-.4-.5h.7c.3 0 .3.4.4.5a5.3 5.3 0 00.7 0 3.2 3.2 0 00.7 0l-.5-.6a3.3 3.3 0 01.7 0 6.4 6.4 0 01.5.6 4.5 4.5 0 00.4.5 3.2 3.2 0 00.7 0 3.3 3.3 0 01.7 0h.7l.4.6h.7a2.9 2.9 0 00.7 0l-.4-.5s.6.2.7 0-.5-.4-.5-.5h-2a4.2 4.2 0 01-.7 0c-.2 0-.3-.6-.5-.6h-.7a3.7 3.7 0 01-.4-.6l-.5-.5a3.2 3.2 0 00-.7 0 3.3 3.3 0 00-.7 0l.5.5a4 4 0 01-.7 0H88l-.5-.5-.4-.5a4 4 0 01.6 0h.7l-1-1h-1.3a3.8 3.8 0 00-.7 0l.5.5a3.7 3.7 0 01-.7 0h-.7a4 4 0 01-.7 0 3.8 3.8 0 01.5.5zM100.8 138.2a4.5 4.5 0 00.7 0c.3 0 .3-.4.5-.5a6 6 0 01-.7 0l-.5.5zM136.9 86.3a3.6 3.6 0 00.2.7 3.9 3.9 0 00.3-.7l-.2-.7-.3.7zM135.3 68.6a4.9 4.9 0 000-.7 4.2 4.2 0 00-.4-.6v.7l.3.6zM112.5 23.7a5.7 5.7 0 00-.2-.6c-.2-.2-.5-.2-.7-.3a6 6 0 01.3.7l.6.2zM78.6 4l-.6-.4h.7l-.6-.5-1.4.2 1.2.9.7-.1zM14.2 120a6.8 6.8 0 00-.7-.3 4.3 4.3 0 00-.7-.4 6.3 6.3 0 00.3.7 5.8 5.8 0 00.6.4l.7.3-.2-.7zM22.2 128.3a5.5 5.5 0 00.3.6c.2.2.6 0 .7.2a6.3 6.3 0 01-.3-.6l-.7-.2z"/><path class="c" d="M154 131.4a380.4 380.4 0 01-43.8-25.8l-4.9-6a10 10 0 00-5.7-9.5l-10-5.4a11.7 11.7 0 00-15 3c-3.3 4.3-3.6 11.4.9 15.2l.2.2c-5.7 4.5-7.7 14.6.4 19.9a66 66 0 0031.3 10.1 9.6 9.6 0 002.3-.1l3.3 2.1a10.1 10.1 0 005.6 8.2 72.9 72.9 0 0120.6 16c8.8 10 22.6-1.8 18.8-12.3 2.9-5.3 2.4-12.4-4-15.6z"/><path class="c" d="M99.3 87.7C91.6 81.2 83.8 74.6 75 70c-4.6-2.3-16.7-10.3-18.3-5.2-2 6.6 15.2 15 20.7 19 7.6 5.6 7 5.4 13.7 12.2"/><path class="d" d="M67.1 64.3zM90.2 96.8c-.2 0-.7-.2-1-.6a18.2 18.2 0 01-1.2-1.5c0-.1-.2-.4-.3-.2 0 .5-.5 0-.7 0-.4 0-.5-.4-.7-.7a1.8 1.8 0 00-.6-.6.9.9 0 01-.4-.4c-.2-.7-.8-.8-1.3-1.1a3.3 3.3 0 01-.9-.7 30 30 0 00-3.6-3.3l-2.8-2.1-.7-.8-.3-.2a3 3 0 01-1.6-1c-.6-.2-1-1-1.6-1a1.2 1.2 0 01-.4-.3 27.4 27.4 0 00-3-2 1 1 0 01-.6-.4 16.7 16.7 0 01-2.7-1.7 10.9 10.9 0 00-1.7-1.3l-1.6-1.2-1-.7a8 8 0 01-2-1.7 4.4 4.4 0 00-1.4-1.5l-.3-.3a.8.8 0 00-.3-.6 9.6 9.6 0 01-1.9-2.9 4 4 0 01-.5-2.2l.1-.6.2-.6a2.8 2.8 0 01.2-.6 3.3 3.3 0 01.3-.6 3.2 3.2 0 011.5-1.3 3.9 3.9 0 011.7-.3 13.5 13.5 0 012.2.3l2 .5a16.7 16.7 0 013 1.3 2 2 0 01.7.4 2.8 2.8 0 01.7.2c1.6 1 3.4 1.6 5 2.7a9.3 9.3 0 001.2.6c1.7.9 3.5 1.9 5.4 2.7a4.3 4.3 0 011.3 1l.2.2a4.6 4.6 0 012 1l7 4.7a88 88 0 013.8 2.7 7.4 7.4 0 011 .9c.6.6.6.6 0 .6a10.1 10.1 0 012.8 2.8c.1.1.2.3 0 .3a1.7 1.7 0 01.2.3c0 .6 0 .6-.7.2l-.4-.2.3.2a3.6 3.6 0 01.6.8c.4.4 1 .8 1.3 1.3.2.2.4.5.2.6s-.4.2-.8-.1a3.1 3.1 0 01-1-1 1 1 0 00-.3 0c-.4-.3-.7-.7-1.2-.9-.3 0-.4-.2-.5 0s-.6.1-1.1-.3L89.4 82a20.6 20.6 0 01-1.7-1.5 9.2 9.2 0 00-1.2-.8c-2-1.4-4-3-6-4.2a78.8 78.8 0 00-5.8-3.4L73 71c-.6-.2-1.2-.6-1.8-1l-6.6-3.4-1.9-.7a8.9 8.9 0 00-2.9-.9 2 2 0 00-1 .2 1 1 0 000 .2 1.3 1.3 0 000 .3 4.3 4.3 0 001 2.6 11.2 11.2 0 002 2 13.2 13.2 0 011.2 1.3 7.5 7.5 0 001.3 1c.5.3 1.2.5 1.4 1.1.4.1.7.5 1 .6.6.3 1 .8 1.6 1 .3.2.1.3.2.5s.1.4.4.2 1 .2 1.2.7a.4.4 0 00.4.3.7.7 0 01.7.4l.3.2c.7 0 1.1.6 1.7.9l.2.2c0 .1 0 .3.3.3a2.6 2.6 0 011.3.6c1.3 1 2.7 1.7 4 2.8 1.6 1.3 3.3 2.5 5 4l2.8 2.4a9.8 9.8 0 011.7 2 14.2 14.2 0 002 2.2 2 2 0 01.5.8c.1.2.1.5-.1.5a.8.8 0 01-.8-.3 10 10 0 00-1.7-1.3 11.4 11.4 0 01-1.5-1.5l-1.4-1.4a2.2 2.2 0 00-.2-.2c-.1-.1-.3-.2-.4-.1s.2.2.2.3a35.3 35.3 0 013.2 3.5l1.8 2.1a3.7 3.7 0 01.3.4c.1.4.2.7 0 .9zm6.6-10.1h.1zm.8-1.8zm-2.9-3.2z"/><path class="c" d="M91 96c-7.2-4.3-10.7-7.7-18-12-6.7-4-19.8-16.6-24.9-10.5-2 2.4 6.4 7.6 8.7 9.9a338.9 338.9 0 0029.8 26.3"/><path class="d" d="M56.4 71.7zM85.9 110.6c-.2.1-.8-.1-1.2-.5a19.1 19.1 0 01-1.4-1.4c-.1 0-.3-.3-.3-.1 0 .4-.6 0-.8 0-.4 0-.5-.3-.8-.6a2.2 2.2 0 00-.7-.6 1 1 0 01-.4-.4c-.4-.7-1-.8-1.6-1.1a3.8 3.8 0 01-1-.7l-4-3.7-2.8-2.5c-.3-.3-.4-.7-.8-1l-.2-.2a3.2 3.2 0 01-1.6-1.3c-.6-.4-.9-1.2-1.6-1.5a1 1 0 01-.3-.2 32.5 32.5 0 00-2.8-2.7 1.2 1.2 0 01-.4-.6 19.8 19.8 0 01-2.5-2.3 12 12 0 00-1.6-1.6l-1.4-1.4-1-1-1-.8a7.7 7.7 0 01-.7-.8 3.3 3.3 0 00-1.6-1.3.7.7 0 01-.3-.3.8.8 0 00-.4-.5c-1-.5-1.8-1.4-2.7-2a11.4 11.4 0 01-2.8-3 4.2 4.2 0 01-.8-2 2.5 2.5 0 01.7-1.9 6.3 6.3 0 012.4-1.6 7.6 7.6 0 012.5-.5 9.4 9.4 0 013.7.8 2.2 2.2 0 01.8.4 2.7 2.7 0 01.7.2 31 31 0 015.3 3 13.9 13.9 0 001.3.7c1.8 1.2 3.5 2.5 5.3 3.6a4.3 4.3 0 011.4 1.1l.1.2c.8 0 1.4.7 2 1.1l3.8 2.3 3.9 2.3 4 2.6a8 8 0 011.1.9c.6.5.6.5 0 .6a12.6 12.6 0 013.3 2.5c.1.2.2.3.1.4a.8.8 0 01.1.2c.2.6.1.7-.7.3-.1 0-.3-.3-.4-.1s.3.1.4.2a4.4 4.4 0 01.8.7l1.5 1.2c.2.2.5.4.3.5s-.4.3-.8 0a3.3 3.3 0 01-1.3-.8 1 1 0 00-.2-.1c-.5-.1-1-.6-1.5-.7h-.5c-.1.1-.6.2-1.2-.2L80 90.8a23.4 23.4 0 01-1.9-1.5 10.3 10.3 0 00-1.2-.7L70 84.3l-6-4.3-3.5-2.3a33.6 33.6 0 00-6.6-3.5 8.6 8.6 0 00-1.9-.3 2.5 2.5 0 00-2 .5h-.2a.2.2 0 000 .2l.3.4a7.7 7.7 0 00.5.6 30.6 30.6 0 003.3 2.9l2.7 2a9.5 9.5 0 011.7 1.6 10.2 10.2 0 001.2 1.2c.5.4 1.3.7 1.4 1.5.4.1.7.5 1 .8.6.3 1 1 1.5 1.3.2.2 0 .3.1.5s0 .4.5.4.8.4 1 .9c0 .2.2.3.3.4a.8.8 0 01.7.5c0 .2.2.3.3.3.7.1 1 1 1.6 1.3.1 0 .2.2.1.3s0 .3.3.4a3 3 0 011.3.9c1 1.1 2.4 2.2 3.5 3.3 1.6 1.6 3.3 3 5 4.5.8.8 1.9 1.6 2.9 2.3a11.8 11.8 0 012 2 15.7 15.7 0 002.3 2 2.3 2.3 0 01.6.7c.2.2.2.5 0 .6a1 1 0 01-.9-.3 12.2 12.2 0 00-1.9-1.2 11.7 11.7 0 01-1.8-1.4l-1.6-1.3a2.3 2.3 0 00-.2-.2c-.2-.1-.3-.1-.4 0s.1.1.3.2c1.3 1 2.4 2.3 3.7 3.4l2 2a4.4 4.4 0 01.4.4c.4.3.6.7.3.8zm2.4-15.3h0zm.5-2zm-3.3-3z"/><path class="c" d="M77.3 104.2C63 98.2 48.7 84.7 45 90c-2.8 4 19.9 19.7 34.4 28.6"/><path class="d" d="M48.1 87.5zM78.8 119.5c-.1.2-.6 0-1-.2a12.3 12.3 0 01-1.2-1c0-.1-.2-.3-.2-.1 0 .4-.5 0-.7.1s-.4-.1-.7-.3a1.2 1.2 0 00-.6-.4.7.7 0 01-.4-.3c-.3-.6-.9-.5-1.3-.7a2.5 2.5 0 01-.9-.5c-1-.9-2.2-1.7-3.4-2.5l-2.4-1.7-.7-.7-.2-.2c-.5-.2-1-.3-1.4-.9-.5-.2-.7-.8-1.3-1a.8.8 0 01-.3-.1 20.4 20.4 0 00-2.5-1.9.7.7 0 01-.4-.4 12.8 12.8 0 01-2.1-1.6 7.4 7.4 0 00-1.4-1.1 14.1 14.1 0 01-1.2-1 10.2 10.2 0 00-.8-.6A6.8 6.8 0 0152 101a2.5 2.5 0 00-1.2-1 .4.4 0 01-.3-.3.6.6 0 00-.2-.4c-.8-.4-1.4-1.2-2-1.7a13.6 13.6 0 01-2.2-2.2 8 8 0 01-1.5-1.8l-.4-.8a6.2 6.2 0 01-.4-1 3.4 3.4 0 010-2.5 3.8 3.8 0 011.6-1.5 3.7 3.7 0 011-.3 4.3 4.3 0 01.9-.1 1.6 1.6 0 01.8.1 2.2 2.2 0 01.7 0 15.7 15.7 0 014.7 1.8 7.6 7.6 0 001.1.5l4.5 2.4a2.9 2.9 0 011.1.8l.2.1c.7 0 1.1.5 1.7.8 2 1.2 4 2.4 6 3.4l3.5 1.7a4.7 4.7 0 01.9.6c.5.4.5.4 0 .6a7.7 7.7 0 012.7 1.7c.1.1.2.2.1.3a.4.4 0 01.1.2c.2.5.1.6-.5.4-.2 0-.4-.2-.4 0s.2.1.4.1a2.4 2.4 0 01.6.5c.4.4.9.5 1.3.9.2.1.4.3.3.4s-.3.4-.7.2a2.1 2.1 0 01-1-.5l-.3-.1c-.4 0-.7-.3-1.2-.4l-.4.1c-.1.1-.5.3-1 0q-2.3-1.1-4.5-2.4a13 13 0 01-1.7-1 8.9 8.9 0 00-1-.6c-1.9-1-3.6-2.2-5.4-3.3l-4.9-3-2.9-1.4a16.7 16.7 0 00-2.7-1.1 7.1 7.1 0 00-2.1-.4l-.2.1a.1.1 0 00-.1.1v.1l.2.2a23.2 23.2 0 002.2 2.7l2.5 2.4a20.8 20.8 0 002 1.6 8.3 8.3 0 011.2 1.1 6.5 6.5 0 001 .8c.5.3 1.1.5 1.3 1 .3.1.5.5.8.6.5.2.8.7 1.3.9.2.1 0 .3.1.4s0 .4.4.3.7.2.9.6c0 .2.2.3.3.2a.6.6 0 01.6.4l.2.2c.6 0 1 .6 1.4.8l.1.2s0 .3.3.3a1.8 1.8 0 011 .6l3.2 2.3 4.2 3 2.5 1.6a7 7 0 011.7 1.3 9.1 9.1 0 002 1.4 1.4 1.4 0 01.6.6v.6a.7.7 0 01-.8 0 6.8 6.8 0 00-1.6-.8 7.6 7.6 0 01-1.6-1l-1.3-.9a1.3 1.3 0 00-.2-.1h-.3l.2.2a38.9 38.9 0 013.2 2.4l1.8 1.4a2.7 2.7 0 01.3.2c.2.4.4.7.1 1zM75 104.1h.1-.1zm.3-1.9zm-2.8-2z"/><path class="c" d="M79.5 118.5c-8.3-4.4-22-13-26.4-8.2-2.8 3.1 12.2 13.1 27.2 18.4 5.8 2 24.4 6.2 27.4 7.2a38 38 0 019 4.8 664.5 664.5 0 0134.1 25.5"/><path class="d" d="M150 167.1c-.1.1-1-.3-1.5-.8l-2-1.8c-.1-.1-.4-.5-.3-.2 0 .5-.7-.2-1-.2-.5 0-.8-.4-1.1-.8a4 4 0 00-1-.8 2.1 2.1 0 01-.7-.5 5.3 5.3 0 00-2.1-1.5 7.8 7.8 0 01-1.4-1c-1.8-1.6-3.8-3.1-5.7-4.6l-4.2-3.2c-.5-.4-.7-.8-1.2-1.1l-.4-.3a6.2 6.2 0 01-2.3-1.7c-.9-.4-1.4-1.3-2.3-1.7a2 2 0 01-.5-.3 45.6 45.6 0 00-4.4-3.1 2.3 2.3 0 01-.7-.7c-1.2-.9-2.6-1.5-3.8-2.5a13.2 13.2 0 00-2.6-1.6l-2.4-1.1a9.4 9.4 0 00-1.5-.6 27 27 0 01-3.5-.9 6.7 6.7 0 00-2.7-.7 1.4 1.4 0 01-.6-.2 1.4 1.4 0 00-.8-.3c-1.5-.2-3-.8-4.4-1-1.9-.2-3.4-1-5.2-1.3l-3.6-.9-5.5-1.5a35.5 35.5 0 01-4.4-1.6 4 4 0 01-1-.6 6.6 6.6 0 01-1-.2c-2.6-1.2-5.3-2.1-7.6-3.6-.7-.4-1.3-.5-1.9-.9-2.6-1.4-5.1-3-7.7-4.7a7.6 7.6 0 01-1.8-1.6l-.3-.3a7.3 7.3 0 01-2.6-2.4 8.2 8.2 0 01-.6-1 5 5 0 01-.5-1.3 3.4 3.4 0 010-1.5 2 2 0 01.2-.7 1.6 1.6 0 00.2-.3l.2-.3a9 9 0 01.8-.7 5 5 0 01.7-.5 7.3 7.3 0 011.4-.6 9.6 9.6 0 012.7-.3 21 21 0 014.8.9 45 45 0 016.5 2.4 13 13 0 011.7 1c1 .6 1 .6.4.7a20.2 20.2 0 014.9 3c.2.2.3.4.2.5a2 2 0 01.2.2c.4.7.4.7-.8.2l-.5-.2.5.3a7.3 7.3 0 011.2.8c.7.6 1.5 1 2.2 1.5.3.3.7.5.6.7s-.5.2-1.2-.1a6.5 6.5 0 01-1.7-1 3 3 0 00-.4-.2c-.6-.2-1.3-.7-2-.9-.3 0-.5-.2-.6 0s-.7.2-1.6-.3A99 99 0 0064 113l-3-1.2a10 10 0 00-1.9-.4 11.4 11.4 0 00-2.8-.3 4.3 4.3 0 00-1 .3 2.6 2.6 0 00-.5.1.3.3 0 000 .3v.1l.2.3a5.7 5.7 0 00.5.7 24.7 24.7 0 003.6 3c1.3 1 2.6 2 4 2.8l5.1 2.8c3.2 1.7 6.6 3.1 10 4.5l3 1a44 44 0 004.8 1.5l6.7 1.7 6.2 1.5 4.5 1a22.3 22.3 0 012.8.8 9.5 9.5 0 001.2.3l1.3.4a5.9 5.9 0 012.8 1.3 11.5 11.5 0 011.7.8 25.6 25.6 0 012.5 1.4c.4.3.2.4.4.6s.3.5.7.4 1.2.5 1.6 1a.9.9 0 00.6.5 1.5 1.5 0 011 .7.9.9 0 00.5.3c1 .1 1.6 1 2.4 1.5l.3.3s.1.4.5.5a5.5 5.5 0 011.8 1.1c1.8 1.4 3.7 2.7 5.4 4.2 2.4 1.9 5 3.7 7.3 5.7l4.2 3.1a21.5 21.5 0 012.9 2.5 29.6 29.6 0 003.3 2.8 4.4 4.4 0 011 1c.2.3.3.6 0 .6a1.5 1.5 0 01-1.1-.4 22.5 22.5 0 00-2.6-1.8 22.5 22.5 0 01-2.5-2l-2.2-1.8a2 2 0 00-.4-.2c-.2-.2-.4-.3-.5-.2s.2.3.4.4c1.9 1.4 3.6 3 5.3 4.5l3 2.6.6.5c.4.6.7 1 .4 1.1zm-74.2-49.6l.2.1a.5.5 0 00-.1 0c0-.1-.2-.1 0 0zm.1-2zm-5.2-3.5z"/><path class="c" d="M106.3 71.5l.5-1c-4.2-.2-7.5-3.6-8.3-8a3.5 3.5 0 01-.8-.8 11.3 11.3 0 01-2-4.5 9.3 9.3 0 01.4-4.5 11 11 0 015.6-6 5.4 5.4 0 014.2-.3 7.2 7.2 0 00-8-5.1l-3.9.4a9.6 9.6 0 00-7.6-1.8l-17.5 2.9-7.5.3c-5 .3-28.2 24-24.4 41.8 1.8 8.1 11.4 10.9 19 7.4 6-.3 12.4-1.6 18.2-2.2l25.8-2.7c7.7-.8 11.3-11.5 6.3-15.9z"/><path d="M75.3 60l6.7 2.3a1.1 1.1 0 01.4 2L77.2 69a1.2 1.2 0 00-.3 1l1.4 6.9a1.1 1.1 0 01-1.5 1.3l-6.8-2a1.2 1.2 0 00-1 .2L63.6 81a1.1 1.1 0 01-1.8-.6l-1.6-6.9a1.1 1.1 0 00-.8-.8l-6.7-2.3a1.1 1.1 0 01-.4-1.9l5.2-4.8a1.1 1.1 0 00.3-1l-1.3-7a1.1 1.1 0 011.4-1.3l6.8 2a1.1 1.1 0 001-.2l5.4-4.6a1.1 1.1 0 011.9.6l1.6 6.9a1.1 1.1 0 00.7.8z" fill="#ea611b"/><path class="c" d="M78.5 26v-.1h-.1v.1zM75.2 28.8c-.2-.2.1.1 0 0zM75.2 28.8zM74.4 29.4c.1 0 0 0 0 0zM78.5 25.6v-.1c-.2-.2 0 .1 0 0zM74.8 29s.1.1 0 0zM75.5 28.4zM77.8 26.2l-.1-.1.1.1zM79.2 24.5a.8.8 0 00.2.2v-.1zM74.3 29.4c0 .1.1.1 0 0s-.1 0 0 0zM74.5 29.1a1.5 1.5 0 00.1.2v-.1zM74.7 29c-.2-.2 0 0 0 0zM74.7 29zM75 29l-.2-.2.1.1zM76.2 27.3l.1.1zM76.4 27.4c.1 0 .1 0 0-.1s-.1 0 0 0zM74.2 29.4c-.1 0 0 .1 0 .2s0 0 0-.1zM75.3 28.6v-.2.2zM76.5 27a.8.8 0 010 .2c.2 0 .3.2 0 0V27zM78.6 25.4v-.2c-.3-.3 0 .1 0 .2zM72 31.3c.1 0 0 0 0 0zM72 31.2l.1.1zM74.5 28.7a.6.6 0 00.1.1zM75.8 27.6c.1.1-.1-.1 0 0zM76 27.8a1 1 0 00-.2-.2 4.3 4.3 0 00.2.3c.2.1 0-.1 0 0zM72.6 30.7l.1.1a1.2 1.2 0 00-.1-.2c-.1 0 0 0 0 .1z"/><path class="c" d="M74.4 28.6l.2.2a2 2 0 00-.2-.1zM75 28.3V28v.1zM71 32zM71 32c-.2-.2.2.1 0 0zM73.8 29l.1.1zM70.9 32.3s.1 0 0 0c-.4-.5 0 0 0 0zM70.5 32.6a2 2 0 00-.2-.2c0-.2.2.2.2.2zM74.8 28c-.1-.2 0 0 0 0s.1.1 0 0zM70.1 32.5c-.1-.2 0 0 0 0zM70.2 32.5zM70.1 32.5zM70.7 32.1s-.1 0 0 0z"/><path class="c" d="M70.7 32.1c-.4-.3 0 .1.1.3s.1 0 0-.1h.1a.8.8 0 00-.2-.2zM72.6 30s0-.1 0 0zM74 28.6v.1l.2.2c.2.2 0 .2.2.2s0-.1-.1-.2l-.2-.2H74zM70.6 31.7c.1 0 .1 0 0 0zM78.2 24.3zM70.7 31.5zM70.9 31.7l-.2-.1a3 3 0 01.3.3l-.2-.1v-.1l.1.2h.1l.2.1c.2.2 0 0 0 0l-.2-.3h-.1zM72.3 29.8l.1.1zM70.6 31.3l.2.2-.2-.2zM70.6 31.3zM72.3 29.7c-.1-.1 0 0 0 0zM70.5 31.4c-.2-.1 0 0-.1 0s.1.1 0 0zM78.3 23.6c-.2 0 0 0 0 0zM78.5 23.3zM79 23.8l-.5-.5s-.1-.2 0 0l.5.5zM76.3 25c.1.2.2.3 0 .1zM69.3 31.5c0-.1 0 0 0 0zM76.7 24l.1.2a1.1 1.1 0 00-.1-.1zM77.4 22.8l.2.2-.2-.2zM69 31.2zM69 31c-.1-.1 0 0-.1 0v-.1l.3.3-.2-.2zM77.2 22.9l-.2-.2a.7.7 0 01.2.2zM68.8 31s.2.1 0 0zM68.7 31c-.2-.2 0 0 0 0zM73.7 25.7zM77.6 22.6v.1c0 .1 0 0 .1 0v-.1l-.3-.3s0 .1 0 0l-.3-.2a1.6 1.6 0 00.2.2c-.2-.1.1.2.1.2l.2.1zM76.2 23.1s0 .1 0 0c0 0 0 .2.2.2s-.2-.1-.2-.2zM76.3 22.9v-.1.1zM72.3 26.7s.2.2 0 0zM74 25.7l-.1-.2-.2-.2.4.4zM68.6 30.6v.1a2.2 2.2 0 00-.2-.2l.2.1zM74 25l.3.3-.2-.3zM77.3 22.2V22v-.2a.3.3 0 00-.2 0l.1.1c.1.1 0 0 0 0a1.1 1.1 0 00.1.2zM77.1 21.9s0-.1 0 0zM72.2 27.3l-.1-.2-.2-.2c-.2-.2 0 .2.2.3h.1zM73.6 25.5l-.1-.1zM75.3 23.4l.1.1zM76.5 22.3zM76.7 22.5l-.2-.1.2.1zM76.7 22.2c-.2-.2 0 0 0 0s.1.1 0 0zM76.8 22a.2.2 0 00-.1 0l.3.3zM77 21.8s.2.2 0 0zM76.6 22.4l.4.3-.2-.3s-.2-.3 0 0l-.2-.2v.2zM72.4 26.4l.1.1-.1-.1zM72.5 26.6l.3.3-.1-.2c-.1 0 0 0 0 0l-.2-.2h-.1c-.2-.2-.1 0-.2 0a5 5 0 00.4.2l-.1-.1zM73.6 25.6c0 .1.2.2 0 0a3.6 3.6 0 00-.2-.2c-.1-.1-.3-.2 0 0l.2.2zM73.5 25.2zM73.5 25.2c-.1-.1-.2 0 0 .1s.2.1 0 0zM73.6 25.3l-.1-.2.1.2zM73.5 25.1s-.1 0 0 0z"/><path class="c" d="M73.6 25.2l-.1-.1a1.1 1.1 0 00.1.2zM68.4 30.4l-.1-.1c-.1-.1 0 0 0 0a.4.4 0 00.1.1zM73 26.1l.1.1-.3-.2-.1-.1c-.1 0 0 0 0 0a2 2 0 01.3.3zM72.8 25.9a1.2 1.2 0 01.2.1l-.2-.2c-.2-.1 0 0 0 0zM72.9 25.6v.1c0 .1.1 0 0-.1zM73.3 25.2s.1.1 0 0zM74.8 24.7l-.1-.2a.6.6 0 00-.1-.1l-.2-.3h-.1l.3.4.2.2z"/><path class="c" d="M74.5 24.3c0-.2.3.3.3.3l-.4-.5s-.1 0 0 0l.1.2zM75.3 23.3c0-.1-.1-.1 0 0zM76.2 22.7l-.1-.2c-.1 0-.2 0 0 .3 0 0-.1-.3.1-.1zM72.2 26.4H72zM72.4 26v0zM75.5 23zM76 23.6l-.2-.3.1.1c.1.2 0 0 0 0h.1c0-.1 0 0 0 0a2 2 0 000-.2 2.6 2.6 0 00-.4-.3v.2c0 .2 0 0 0 0v-.2l.4.5c.1 0 0 0 0 0l-.2-.1a1.3 1.3 0 00-.3-.3h.1a4.3 4.3 0 00.4.6zM68 30.2zM68 30.2zM68 30.2zM68 30.2c-.2-.2.2.1 0 0zM68.1 30.2s.1.1 0 0zM71.1 31.5zM74.6 29.4zM73.3 30.3zM75 28.6h.1zM70.8 31.6z"/><path class="c" d="M68.1 30.1l.5.5.1.1.2.2-.1-.1.1.2c.1.2.1 0 .1 0v.2a1 1 0 01.2 0l.2.4.3.3.4.5.2.1-.1-.1-.3-.3c-.2-.3 0-.2.2 0l.3.4-.2-.2a1.5 1.5 0 01.4.3v-.1.1c0 .1 0 0 0 0l-.1-.2c-.1-.1 0 0 0 0a.5.5 0 01-.2-.3l.2.2c.2.3.3.2.3.2l-.3-.3s-.3-.4 0-.1l-.1-.1-.1-.3.3.4-.1-.2c-.1 0 0 0 0 0a.2.2 0 01.1 0h.2a1.4 1.4 0 01.2.3s.2.2.1 0l-.3-.3c.2.1.4.5.4.3s0 0 0 .1l.3.2-.3-.3-.2-.1-.3-.4-.2-.2c-.2-.1-.2-.3-.2-.3s.2.2 0 0 0-.1 0 0l.3.2v-.1a.6.6 0 00-.1-.1l-.2-.2-.3-.3.3.3.7.8-.1-.2c.1.2.3.4 0 0l.4.4h.1l-.3-.3c.3.3.1 0 .2 0l.2.2-.2-.2-.2-.2-.2-.3.2.2a2.9 2.9 0 00.2.3 2.6 2.6 0 01-.1-.2 2.5 2.5 0 00.3.3l-.2-.2.3.2c.1 0 0 0 0-.1a2.4 2.4 0 00-.2-.1v-.1-.1l.4.3h-.1c-.2-.4 0-.2-.3-.4.2.2 0 0 0 0a2.3 2.3 0 01.3.3l-.3-.4-.2-.2c-.2-.2 0 0 0 0l.3.3.2.2-.2-.2.3.2-.3-.3s-.2-.3 0-.2a1.1 1.1 0 00.1.3h.2l-.1-.1-.1-.2c.2.2-.2-.3.1 0l.2.3c.2.3.1 0 .2 0l-.2-.2.1.2a2.5 2.5 0 01-.2-.2c-.2-.2 0 0 0-.1l-.3-.3.2.2c.1 0 .2.3.3.2s-.3-.2-.1-.1l.3.3-.2-.4.1.2s.2.1 0 0c.3.2 0 0 0 0h.2L72 31a1.8 1.8 0 01-.4-.4l.3.3.2.1a1.5 1.5 0 00-.4-.3l-.2-.3a2.4 2.4 0 01.3.3v-.1l.3.1c.1.1 0 0 0 0l.2.3h.2l-.2-.3.2.2-.2-.3a2.7 2.7 0 00.3.3l-.1-.2s0 .1 0 0a.5.5 0 01-.1-.2l.2.2c.1 0 .1.1.1 0a2.5 2.5 0 00-.2-.1c0-.2.2.1.3.1l-.1-.1-.1-.1.2.2a.8.8 0 010-.2v.1l-.1-.2-.2-.3s-.2 0 0 .1l.1.1c.1.1 0 .1-.1 0l-.2-.2a.3.3 0 01-.2-.2.4.4 0 010-.2c-.1 0 0-.1 0 0l.3.3c.1.1 0 0 0 0a2 2 0 01-.1-.3.7.7 0 010 .2v-.2c.1.1 0 0 .1 0l.2.3.3.4s-.5-.4-.2 0h.1l.2.2s.2-.1-.3-.5h.2v.2a.4.4 0 00.2.1c.1 0 .1 0 0-.2l.1.1s0-.1 0 0 0-.1.1 0 .1 0 .1 0l-.2-.3.2.2h.2l-.9-1v-.2l.5.5a4 4 0 00.4.5c.2.2.1 0 .1 0l-.2-.3-.2-.2c-.2-.2 0-.1 0-.1l.5.5h.2l-.1-.2-.2-.2c-.2-.2 0-.1 0-.2a5.2 5.2 0 00.3.4 2.3 2.3 0 010-.2v.1s.2.1.2 0l-.3-.3-.4-.3c.2.1-.2-.3-.2-.3a3.4 3.4 0 00.4.5s.2 0 0-.1h.2c.2 0 .4.6.4.5a2.3 2.3 0 00-.2-.3l-.2-.3a4.4 4.4 0 01.4.4s.1.2 0 0v-.2l-.5-.3.3.2-.4-.4-.2-.3c.1.2.3.3 0 0a2.3 2.3 0 01-.3-.2l-.1-.2.5.6.2.2.1.1a4 4 0 00.6.6l-.4-.5-.3-.3h0v-.2l.2.2s-.2-.2 0-.1l.2.2.2.3a2.3 2.3 0 01.2.2c.1 0 0-.2 0-.2l.1.1c.1.1 0-.1 0-.1l-.2-.1a2.8 2.8 0 01-.3-.4l-.2-.2a1 1 0 01.2 0c-.3-.3.2.2 0 0a1.7 1.7 0 01.2.3v-.1c-.1-.2 0-.2 0 0s.3.3.3.3l.2.1c-.1-.2 0 0-.1 0a3.8 3.8 0 01-.6-.6l.5.4-.4-.5.2.2.2.2.1.1a2.3 2.3 0 00-.2-.3l-.3-.2.2.1c0 .1-.2-.3 0-.2s0 0 0 .3l.2.1a2 2 0 00.3.3.3.3 0 000-.2c-.3-.2 0 0 0 0v.1s.2 0 0-.2c-.2 0-.1-.1 0-.1h-.2c0-.1-.2-.3 0-.3a2.6 2.6 0 01.3.5s.1 0 0 0v-.2l-.3-.3.1.1-.6-.7.2.2.1.1.3.3.2.2.3.2-.2-.2-.2-.1c-.2-.1-.2-.4-.2-.4s.2.3 0 0a2.6 2.6 0 01.3.3l.2.2-.3-.3.4.4c.3.3-.1-.4-.1-.2 0 0-.1-.3.1 0s0 0 .2.1l-.4-.5s-.2-.3 0-.2.1.2 0 0l.3.4c0 .1.2.2 0 .2l.2-.1-.2-.2.2.2-.2-.4.2.3v-.1s0-.1.2 0l-.2-.2a2.2 2.2 0 01-.3-.3l-.3-.3c-.3-.3.1 0 .2 0v.3c0 .2 0 0 .2 0s.3.3.2.1l-.2-.2.1.1s-.2-.3 0-.1l.2.2c.2 0 0 0 0 0a1.6 1.6 0 00-.2-.2l.2.1.3.3-.2-.2v-.2a1.4 1.4 0 00-.1-.1c-.1 0 .3.3 0 .2l-.2-.3c0-.1 0 0 0 0a1.2 1.2 0 00-.2-.1s.3.2 0-.2l.1.1.3.2.2.3a.5.5 0 01.1.1l.1.1v-.2l-.6-.5.4.3c.1 0 0-.1 0-.2v.1c0 .1 0 0 0 0l.3.3a2.8 2.8 0 00-.2-.3l.4.4-.5-.6-.3-.2v-.1l.3.2.2.2-.2-.2a3.5 3.5 0 00.4.4s-.1-.2 0 0l-.3-.4.5.5a3.5 3.5 0 00-.5-.5v-.1l.2.1-.2-.3.6.7V27s.2.2 0 0a.3.3 0 01-.1 0H77v-.2h.4s-.1-.2 0-.2l.2-.1.2-.1c0-.1 0-.2-.3-.4a1.7 1.7 0 01-.2-.3 1.6 1.6 0 01-.2-.2l-.5-.5h.1c.1 0-.3-.3 0 0 .1.2 0 0 0 0a1.5 1.5 0 01.3.4l.2.2a.3.3 0 01.1.2s.4.4.2.1l.3.3s.2 0 0 0 0-.1-.1-.2.1 0 .1 0l-.2-.2.3.2c.2.2 0 0 0 0h.2l-.2-.2c-.2-.2 0 0 .1 0a.4.4 0 010 .1c.2.1 0 0 0-.1 0 0 .2.1.2 0l-.3-.2-.1-.1c-.1-.1.1 0 .1 0l.1.1.2.2c.1.2 0 0 0-.1.1.2.2 0 .2 0l-.2-.2a1 1 0 000-.2l.1.3h.2s0-.1 0 0l-.2-.3a2.3 2.3 0 01-.3-.4l.2.2a.9.9 0 00-.2-.3c-.1 0 0 0 0-.1l.2.2-.1-.1a3.9 3.9 0 00.3.4s-.2-.3 0-.2l.2.2s-.3-.2 0 0l.1.2-.2-.3s-.3-.3 0 0l.2.3v-.2l.1.1-.1-.2.1.1-.2-.2.3.2a.6.6 0 00-.1-.2l-.2-.1-.2-.2-.3-.3v.1s0 0-.2-.1a1.8 1.8 0 00-.2-.4l-.2-.2-.4-.3c-.1-.1 0 0 0-.2s.1.3.2.3l.3.2v.2c.3.3.4.3.2 0v.2l.2.1.4.4.3.3.2.2c.1.1 0-.1 0-.1s-.1-.1 0 0v.1c.1 0 0-.1 0-.1h.2L79 25c-.3-.2 0 0 0 0s-.2-.3 0-.2a.9.9 0 00.2.2c.1 0 0 0 0-.2s.2.3.1 0-.3-.2-.4-.3h.1s.2.2 0 0l.3.2-.2-.3c-.2-.2 0-.2-.1-.3v.2l.2.1.3.3-.5-.6-.3-.3a1.3 1.3 0 01-.1-.1v-.1l-.3-.2a1.3 1.3 0 01-.1-.2l-.4-.3a3.9 3.9 0 00-.3-.4l.2.3a2.5 2.5 0 01.3.3v0c0-.1-.2 0 0 0s0 0 0 .2a2.5 2.5 0 00.5.5c-.2-.2.2.1 0 0h-.1c0 .2.4.5.4.4a.7.7 0 01.1.2l-.2-.2.4.4c.1.1 0 0 0 0l-.2-.1a2.2 2.2 0 01-.4-.5l-.2-.2-.2-.3.3.4a2.7 2.7 0 01-.4-.4h.1l-.1-.1a1.9 1.9 0 01-.2-.3l.1.1c-.2-.2 0 0 0 0v-.1c-.2-.2 0 0 0-.1l-.4-.4s-.1-.2 0 0 0 0-.2 0l.2.3-.2-.3c-.1 0 0 0 0 0a.6.6 0 00-.3-.1l.7.7c.2.3-.3-.2-.3-.2h.1a1 1 0 01-.1 0 .7.7 0 01-.2-.2c-.3-.3.1.1 0 0l-.2-.2.2.2.3.3c0 .2 0 0 .1.1a2.6 2.6 0 01.4.5l-.3-.3-.2-.1c-.2-.1 0 0 0 0l-.2-.2a3 3 0 00-.3-.3c0-.1 0 0 0 0l.2.1c0 .1 0 0-.1 0l-.3-.3.2.2c.3.3 0 .2 0 .1s0 .3-.2 0l-.2-.3a1.6 1.6 0 00.2.3v-.2a1.6 1.6 0 00-.3-.3h-.2l.2.2a1.1 1.1 0 00-.2-.1l.2.2-.1-.1.1.3.2.2a1.4 1.4 0 01-.1-.2l-.2-.2.4.3.4.6c.1.2 0-.1 0-.1l.3.4s-.1-.2 0 0l.2.2.2.1.4.4a.6.6 0 01-.3-.3l-.1-.1-.4-.3.2.2-.1-.1a3.7 3.7 0 00.2.3c0-.1 0 0-.1 0a1.4 1.4 0 00-.2-.3l-.2-.2a4 4 0 01-.3-.4.7.7 0 00-.3-.3v.2c0 .2.3.2.2.1l-.4-.4c.1 0 .1 0 0 0a.5.5 0 00-.2-.2l.2.2a3 3 0 01.2.2h-.2s.1 0 0-.2-.3-.2-.2-.1l.2.2a3 3 0 01-.3-.4H76a.4.4 0 00-.1-.2v.1a.9.9 0 000 .1h-.2a.1.1 0 000 .1s.2.2 0 0v.2c0 .2.2.2.3.3l.3.2-.2-.2-.2-.3a1 1 0 00.2.2 2.6 2.6 0 00-.3-.3h.1l.1.2.3.2v.2c0 .2.1 0 .2.2a2 2 0 01.2.2 3.6 3.6 0 00-.3-.3l.3.4-.4-.4a1 1 0 00.2.2c-.1 0-.2-.1 0 0a2.5 2.5 0 00-.5-.4v.2s0-.1 0 0l.3.3a2 2 0 00.4.4l-.3-.3v.2s-.2-.2 0 0a.3.3 0 01-.2-.1c0-.1.1 0 0 0v-.2s-.1 0 0 0l.1.1v-.2a2.8 2.8 0 00-.3-.2c-.1-.1 0 .1 0 .1v.1s-.1 0 0 0v.1H76l-.3-.3.3.3.2.1c.2.1 0 0 0 0a1.4 1.4 0 01-.2 0l.3.3a1.4 1.4 0 01-.2-.2l-.3-.2a2.3 2.3 0 01.2.1l-.2-.2s-.4-.5-.1-.3a1 1 0 00.2.2l-.3-.3c.2.3.4.3.1 0l-.2-.3v.1c-.2-.2 0 0 0 0l.1.2-.2-.2.2.3s0-.1 0 0l.2.3s-.4-.4-.1 0l.1.2-.2-.2-.1-.2-.1-.1.1.2-.1-.2.4.5a1.4 1.4 0 01.2.2l-.2-.1-.2-.2-.2-.2-.1-.1c0 .2.4.5.3.4l.1.1c-.3-.2 0 0-.2 0h.1l.2.2.2.2.2.2-.2-.1v-.1l-.3-.2h-.1l.3.3c-.1-.2 0 0 0 .1s.2.1 0 0l.5.5-.2-.2a1.2 1.2 0 00-.3-.3 2.3 2.3 0 01.2.2l.1.3h.2a2.3 2.3 0 00.2.3l-.1-.2c-.1 0 0 0 0 0l-.2-.1s0-.2 0 0a3 3 0 01.4.3c0 .2.3.3.3.4l.2.2c.2.1 0 0 .1 0h-.1L77 26s.1.1 0 0-.1 0 0 0l-.2-.2-.2-.2s-.2 0 0 0 .2.3.2.4v.1l-.4-.5a2.6 2.6 0 01-.3-.3 3.2 3.2 0 01-.3-.4 1.8 1.8 0 01-.2-.2l.2.2.2.1a1.5 1.5 0 000 .1v.1a1.6 1.6 0 00.3.3l.2.1-.4-.4.2.2a1.7 1.7 0 00-.2-.2 3.8 3.8 0 01-.4-.4c-.1-.2.2.1.2.1l.3.3a3.7 3.7 0 01-.4-.4h.1l-.3-.4s.2.2.1 0a3.2 3.2 0 00-.4-.3l.4.4-.3-.2-.1-.1c-.1-.1-.1-.3 0-.1l-.1-.2a.5.5 0 00-.1-.2c-.1-.1-.3-.2 0 0l-.1-.1c0-.1 0 0 0 0s-.2 0 0 .1c-.3-.3 0 .2.2.4l-.4-.4c0 .1.2.2 0 .1h-.4s.2.2 0 0l.3.3-.2-.1.2.3h.1c.1 0 0 .1 0 0h-.1l-.1-.1a2.4 2.4 0 00-.3-.3v.1c0 .1 0 0 0 0l.7.8a1.6 1.6 0 00-.2-.1l.1.2c.1.2-.2-.1-.2-.1a6 6 0 01-.5-.5h.1l-.2-.2c.2.1-.1 0 0 .2l.4.5-.4-.5s-.1-.1 0 0 0 .2 0 0 0 .1-.1 0l.2.2-.3-.2c-.1 0 0 .1 0 .1l.2.2-.1-.1.1.2s-.1-.2 0-.2c.2.4 0 0 0 0l.2.3H74a1.4 1.4 0 00.1.1l-.2-.1c-.2-.2 0 0 0 0 0-.1-.2-.1 0 0h-.2v.1l.2.1.2.2c.1.1 0 0 0 .1l.1.2s.2.1 0 0a2.1 2.1 0 01-.3-.3c0-.1 0 0 0 0l-.3-.3v.1c-.2-.2 0 0 0 0h-.1l.5.6a1.5 1.5 0 01-.3-.3 1.2 1.2 0 00-.2-.2s.1.1 0 .1l-.1-.1V25.4c0 .2.5.4.7.6l.4.3-.5-.3a5 5 0 00.5.7c-.1-.2 0-.2-.3-.4a2.3 2.3 0 01.4.3 3.7 3.7 0 00-.3-.4l-.2-.1c.1.2.2.1.2.1l.4.5c0 .2 0 0 0 0h-.1c-.1 0 0 0 0 0l.2.3a2.2 2.2 0 00-.4-.3h.1l.1.3a3.3 3.3 0 01-.4-.4l.2.1c0-.2-.2-.2-.3-.3h.1l.2.2a6.2 6.2 0 00-.6-.7 2.6 2.6 0 01-.2-.2l-.2-.1c0-.1.2.1.1 0a1 1 0 01.2.3 1.1 1.1 0 00-.2-.2l-.2-.2.2.2c.2.1.2.4.3.4l.2.2s-.1 0 0 .1H74v-.1c0-.1 0 0 0 0-.2-.1-.1 0-.2 0s-.2-.3 0 0a2.2 2.2 0 00.2.2c0 .1 0 0 0 0a4 4 0 01.3.5s-.4-.4-.2 0l-.1-.3-.6-.7a1.7 1.7 0 01.2.2l-.4-.4.2.1c0 .1 0 0 0 0l.3.2a4 4 0 00-.4-.4l-.3-.2c0 .1.1.1 0 .1l.2.3-.2-.2.2.2H73l-.1-.2.4.5c.4.3 0 0-.1-.2v.1l-.4-.4.1.2.2.3-.1-.2.3.3.2.3a.1.1 0 010-.1l-.2-.2c0 .1-.1 0-.1 0s.1.2 0 .1l-.1-.1-.2-.2-.2-.2.1.1.1.2.2.2a2.9 2.9 0 01-.3-.2.7.7 0 000-.2 1 1 0 00.2.4l.2.1c-.2-.1 0 0 0 .1a1.5 1.5 0 01.2.2 1.8 1.8 0 01.3.3l.1.2.1.2-.3-.4-.4-.4-.2-.2.2.3.2.2v-.1l.1.1c.2.2 0 .1 0 0l.2.2-.3-.2.2.2a2 2 0 01-.2-.2l-.2-.1-.3-.5c-.1 0 0-.1 0-.1a.4.4 0 00-.3-.2s-.1 0 0 .1a2.4 2.4 0 00.2.2c-.2-.2-.3-.3 0 0a5.7 5.7 0 01.3.5 6.5 6.5 0 00-.6-.6 13.8 13.8 0 000 .1l.3.3c.1.1-.5-.5-.5-.3l.1.1.2.2c0 .1-.3-.2-.2 0l.2.2a.8.8 0 01.3.3l.5.5-.5-.4-.2-.1a.2.2 0 00-.1-.2l-.2-.1a1.3 1.3 0 00.1.2l.2.1-.4-.4H72h.1l.2.2a1.9 1.9 0 01.1.1.8.8 0 00.1.2h-.1l.2.1c-.2 0-.6-.7-.7-.7v.2l-.1-.1v.1c0 .1.2.4 0 .2 0 0-.3-.3-.2-.1h.2a3 3 0 00.3.5l-.4-.4.1.2.3.3c0 .1.2.3 0 .1l.2.3c.2.1 0-.1 0-.1a3.6 3.6 0 00.3.3c-.1 0 0 0 0 0l-.4-.4-.1-.2H72l-.3-.3-.2-.3h-.1l-.2.2h.2a1.1 1.1 0 00.1.3h.1a1.2 1.2 0 01.2.2c.2 0 .2.2 0 0 0 0 .1.2 0 0l-.4-.5c0-.2-.2-.2-.2 0h-.1c-.1 0 0 .2 0 .2l-.1-.2v.2s-.1-.2 0 0v.2l.1.1a1.5 1.5 0 01-.2-.2c-.1-.2 0 0 0 0H71c-.1 0 0 0 0 .1l.2.3-.4-.3v.1c0 .1 0 0 0 0s0 .2-.1 0a3.6 3.6 0 00.2.4l-.1-.1a.6.6 0 00-.1-.2 3 3 0 00.2.3l-.3-.3s0 .1 0 0a.3.3 0 00-.2.2s0 .2.2.3a2.5 2.5 0 00-.3-.2s-.2-.1 0 0l.3.4c.2 0-.1-.2 0-.1l.1.1v.1l.2.1h-.3c-.2-.3 0-.1 0-.1a3.2 3.2 0 00-.3-.4s-.1 0 0 0a2.1 2.1 0 00.2.3l-.3-.2s.1.1 0 0c-.2-.2 0 .1-.1.2h-.1a1.2 1.2 0 000 .1c-.3-.3 0 0-.2 0s-.2 0-.1.1v.2h-.2s.1.1 0 0v.2l-.1-.1h-.1v.1c0 .1-.2 0 0 .1a3.9 3.9 0 00.3.4l-.2-.2c0-.2-.1-.1 0 0v.2l-.2-.2c.2.3-.4-.4-.1 0-.2-.1-.1 0-.1 0h-.1-.1c-.1 0 0 0 0 0v.1s.2.2 0 .1 0 .1 0 .1v-.1.2c-.1-.1-.1-.2 0 0l.1.1-.2-.2a1.3 1.3 0 00.2.3l-.2-.2h-.2s.2.1.1 0h-.1l.2.2-.2-.1c-.1-.1 0 .1 0 0l-.1.1-.3-.2a3.1 3.1 0 00.2.3l-.2-.3a1 1 0 01.1.3.6.6 0 000-.1l-.1.1.1.1zM75.9 24.8zM73.2 25.8zM68 29.8zM76.5 23.6z"/><path class="c" d="M76.4 23.5l-.1-.1a.8.8 0 01.2.2v-.1zM75.2 28.6zM46.8 34.6v-.1.1zM42.7 33.3c0-.3 0 .2 0 0zM42.7 33.3zM41.8 33c0 .1 0 0 0 0s0-.1 0 0zM47.1 34.4c.1-.3 0 0 0 0zM42.3 33s0 .2 0 0zM43.1 33.4v-.1c0-.1 0 0 0 0zM46.3 34.1V34v.1zM48.5 34.5a.7.7 0 00-.1.2.3.3 0 000-.1.8.8 0 000-.1zM41.7 32.9c0 .1 0 .1 0 0s0-.2 0 0zM42 32.9v0zM42.2 33c.1-.2 0 0 0 0zM42.3 33zM42.3 33zM42.4 33.1a1.3 1.3 0 000-.1c0-.1-.1.6 0 .1zM44.5 33.4v.1zM44.6 33.6v-.1.1zM41.6 32.8c0-.1 0 0-.1 0zM43 33.3V33c0-.2-.1.1 0 .2zM43 33.1c0 .2 0-.1 0 0zM44.9 33.4a1.4 1.4 0 01-.1.2c0 .1 0 .3 0 0a1 1 0 000-.2zM47.4 34.4l.1-.1c.1-.4 0 0 0 .1zM38.9 32zM39 31.8c-.2.2 0 .2 0 .2a.7.7 0 000-.2zM42.4 32.7a1 1 0 000 .1.6.6 0 000-.1zM44 33.2c0 .1 0-.2 0 0zM44 33.5a1.5 1.5 0 000-.3 1.2 1.2 0 000-.1l-.1.4s.1 0 0 0zM39.7 32.1V32v.1zM42.4 32.5l-.1.3v-.2c0-.1 0 0 0 0zM43 32.9l.1-.1c.1-.1 0 0 0 0zM37.8 31.4zM37.8 31.4c0-.3-.1.2 0 0zM41.8 32.2s-.1.2 0 .2zM37.5 31.5s0 .2 0 0c.1-.6 0-.1 0 0zM37 31.3a2.5 2.5 0 00.1-.2l-.1.2zM43.2 32.6v-.1c0-.1 0 .2 0 0zM36.9 31c0-.2 0 0 0 0zM36.9 31zM36.9 31zM36.9 31zM37.5 31.2s0-.1 0 0zM37.5 31.2c0-.4-.1 0-.2.3.2-.4 0 0 0 0a.8.8 0 00.2-.3zM40.3 31.7zM42.2 32.2V32l-.1.2-.1.2V32.6l.1-.3c.1 0 0 0 0-.1zM37.8 31s0 .1 0 0zM48 33.5v-.1zM38 31a.5.5 0 000-.2v.1zM38 31.2V31a1.9 1.9 0 01-.1.3v-.2.5c0 .3 0 0 0 0v-.3zM40.3 31.4v.1z"/><path class="c" d="M38.1 30.7l-.1.3a.5.5 0 000-.2zM38.1 30.8s0-.2 0 0zM40.4 31.3c0-.1 0 0 0 0zM38 30.7v-.1c0-.1-.1.2 0 0zM48.7 33.2c0-.2 0 0 0 0zM49.1 33.2zM49 33.9l.1-.7c.1 0 0-.2 0 0a6 6 0 00-.2.7zM46.5 32.2c0 .2 0 .3 0 0zM37.3 29.7v.1c0 .1 0 0 0 0zM47.5 32v.3a.8.8 0 010-.2zM49 32l-.2.3.1-.2zM37.4 29.3a.5.5 0 000-.1v.1z"/><path class="c" d="M37.5 29.2V29l-.1.4v-.2zM48.7 31.9l.1-.2a.7.7 0 010 .2zM37.5 29s-.1.3 0 0zM37.4 29a.4.4 0 000-.2v.1zM44.5 30.4zM49.2 32.1v0l.1-.2v-.1-.3.4l-.1.2zM48 31.2v0zM48.3 31.2V31v.2zM43 29.8c-.1 0-.2.2 0 0zM44.7 30.7l.1-.3c.1 0 0-.2 0-.2v.5zM37.6 28.6v.2a1.7 1.7 0 000-.3v-.1.2zM45.3 30.3v-.1l-.1.5a3.4 3.4 0 000-.4zM49.4 31.6l.2-.2a.3.3 0 000-.1c0-.3-.1 0-.1.1a1 1 0 00-.1.3zM49.6 31.3s0-.2 0 0zM42.4 30v-.2l.1-.2-.1.2c-.1.2 0 .3 0 .2zM44.6 30.2V30 30v.2zM47.3 30.5v.2c0 .1 0 0 0 0v-.2zM48.8 31zM48.8 31.2a.3.3 0 000-.2 2.6 2.6 0 010 .2zM49.1 31v.2c-.1.2 0 0 0-.1zM49.2 31.1a.2.2 0 000-.1v.4a2.4 2.4 0 010-.3zM49.5 31.2v-.1.1z"/><path class="c" d="M48.8 31.1h.1v.2c.1-.2.1-.3 0 0v-.1l.1-.2c0-.1-.2.1-.1 0v.1zM43.2 29.6v0zM43.1 29.8a4 4 0 010 .5V30a2.1 2.1 0 000-.3 1.6 1.6 0 010-.1v-.1l-.1.5zM44.5 30.3s0 .2 0 0a2.5 2.5 0 000-.3c0-.1 0-.3 0 0v.3zM44.8 30zM44.8 30c0-.1 0-.2 0 0s0 .2 0 0zM44.8 30.1c0 .1.1-.2 0-.2v.2zM44.9 29.9z"/><path class="c" d="M45 30v-.1a.9.9 0 00-.2.2zM37.7 28.4v-.2a.7.7 0 000 .2zM43.7 30v.1l.1-.3v-.2.4zM43.9 29.7v.2a.7.7 0 000-.2c.1-.2 0 0 0 0zM44 29.7s0-.1 0 0zM44.2 29.7c0-.1 0 0 0 0zM44.7 29.8s0 .2 0 0zM46 30.8v-.2l.2-.1c.2-.1 0-.1 0-.1V30l-.1.5-.1.2z"/><path class="c" d="M46.1 30.3c.1 0 0 .5 0 .4l.1-.6v.2zM47.4 30.5v-.1c0 .1 0 .2 0 0zM48.4 31c0 .2.2-.4 0-.3l-.1.3c0-.1.2-.3.1 0zM43 29.5v-.1a1.7 1.7 0 000 .1zM43.6 29.5zM47.8 30.6s0-.2 0 0zM47.5 31.2a2 2 0 00.1-.3v.2a.8.8 0 000-.1v.2l.1-.1v.1l.2-.2a2.7 2.7 0 000-.4c0-.2 0 0 0 0v-.2l-.2.6c0 .1 0 0 0 0v-.2a1.1 1.1 0 00.1-.4v.1a7.3 7.3 0 00-.3.7zM37.7 28zM37.7 28zM37.7 28zM37.7 28c0-.2 0 .2 0 0zM37.8 28a.3.3 0 000-.1v.1zM38.2 31.3zM41.8 33zM40.4 32.5zM42.8 33v.1zM38 31z"/><path class="c" d="M37.8 28l-.2.7v.4a1 1 0 010-.2l-.1.2c-.1.2 0 .2 0 .2a1 1 0 010 .3l-.2.3-.1.4a4 4 0 00-.2.6v.3a1 1 0 010-.2v-.4c.1-.2 0 0 .1 0 .1-.3.2-.1 0 .2s0 0 0 .4V31a1.5 1.5 0 010 .5v-.2.2c0 .1 0 0 0 0 .1-.3 0-.1 0-.2a.5.5 0 01.1-.3v.3c-.2.2 0 .3 0 .2a1.8 1.8 0 000-.3s.2-.5.1 0v-.3l.2-.2-.2.5.1-.2v.7l.2-.4c0 .2-.2.6 0 .4s0 .2 0 .2l-.2.2s0 .2.1 0v-.3-.2l.2-.5.1-.3.1-.3s0 .3 0 0 .2 0 0 0 0 .4 0 .4a.1.1 0 010-.1.4.4 0 000-.2s0-.3.1-.2l.1-.5v.5a8.6 8.6 0 01-.4 1 1.7 1.7 0 010-.2v.1a2.7 2.7 0 010 .5c0-.1 0 0 0 0a4 4 0 01.1-.3c0 .3 0 0 0 0v.4a2 2 0 00.1-.3v-.3s.2-.5.2-.3l-.1.3a2.1 2.1 0 00-.1.3v-.2a2.6 2.6 0 000 .5v-.3.4l.1-.1a2 2 0 000-.2l.1-.1c.1-.1 0-.1 0-.1a3 3 0 000 .5V32v-.5c0 .3 0 .2 0 0a2.6 2.6 0 010 .5l.1-.5a.9.9 0 000-.2v.3a2 2 0 000 .4v-.3 0s.2-.4.2-.2a1.1 1.1 0 00-.1.3v0a2.8 2.8 0 01.2-.3c-.1.3 0-.2 0 .2l-.2.2c-.2.2 0 .2.1.2v-.2V31.7v-.1a2.7 2.7 0 01.2-.5v.4l-.1.3v-.2.4l.2-.3v.2s0 .2 0 0c0 .4 0 0 0 0v.2a1 1 0 00.1-.3 1.6 1.6 0 01.2-.6l-.1.5c-.1.2 0 .3 0 .2a1.3 1.3 0 000-.5l.1-.3V31.4a.3.3 0 010 .3l-.1.3v.1 0l.1-.3a2.6 2.6 0 000 .3l.2-.3a3.4 3.4 0 00-.1.4v-.1s0 .1 0 0a.5.5 0 01.2-.2 1.5 1.5 0 000 .3v.1a1 1 0 000-.2c.1-.2 0 .2 0 .2l.2-.1V32v.4a1 1 0 010-.2c.1 0 0 .1 0 .2l.2-.3v-.3s0-.2 0 0v.1l.1-.3v-.3h.1c.1 0 0 .1 0 0 0 0 .1-.1 0 0V31.5a1.7 1.7 0 01.1-.2.4.4 0 010 .2v-.2.4l-.2.5s.2-.6 0-.2v.4l.2-.5v.2l-.1.2a.3.3 0 000 .2l.1-.2v.2c0-.1.1-.2 0 0 0 .2.2 0 .2 0v-.1.2h.1c.1 0 0 0 0 0l.4-1.1.1-.1c0 .2-.2.5-.1.6a2.7 2.7 0 00-.2.6c-.1.2 0 0 0 0l.1-.3v-.2l.1-.1-.2.7s0 .1.2 0a.7.7 0 00.1-.3l.1-.2a4.6 4.6 0 00-.1.6 2 2 0 010-.2v.2l.2-.1v.1l.1-.4V32l.2-.4a4 4 0 00-.2.6s0 .2 0 0c.1-.1.2 0 0 .2a3.7 3.7 0 00-.1.6 2.5 2.5 0 00.1-.4l.2-.3-.2.5v.1l.1-.2.1-.5v.3a1 1 0 00.7-.6.8.8 0 01.1-.4c0 .3 0 .4 0 0a1.5 1.5 0 010-.3l.1-.2-.1.7s0 .4-.1.3v.2a3.5 3.5 0 00-.2.8l.2-.6V32 32c0-.2.2.1.2.1v.1l-.1.3-.1.4v.2l.1-.1v-.1a3.4 3.4 0 01.1-.5l.2-.3a.9.9 0 010 .2c0-.4 0 .2 0 0a1 1 0 01-.1.3c.1-.3.1-.2 0 0V33a.2.2 0 010-.2 3.3 3.3 0 01.1-.7V32.8a1.8 1.8 0 00.1-.3l.1-.3v.2l.2-.2-.2.3v.2a1.7 1.7 0 00-.1.4.3.3 0 00.1-.2c0-.3 0 0 0 0v.2l.1-.2s0-.1.1 0a.5.5 0 000-.2l.1-.2a2.9 2.9 0 01-.1.5V33l.1-.3v.1l.3-1c-.1.4 0 .3 0 .4v.1l-.1.5v.3a1.8 1.8 0 010 .2V33v-.2l.1-.4v.1c0-.2 0 0 0 0a2 2 0 010 .3v-.2.5c-.1.5.2-.2 0-.1s.2-.2 0 .1 0 0 0 .2.1 0 .1 0l.2-.6s.2-.4.1-.1 0 .2 0 0c-.1.3 0 .4-.2.4s0 .3 0 .2c0 .1 0 0 .1 0V33c.2-.1 0 .3 0 .4l.2-.5v.4c0 .2.1-.1 0 .1l.1-.2a1.6 1.6 0 01.1-.4l.2-.5v.1l-.1.3c0 .3 0 0 0 0s-.2.6 0 .4v-.3.1c0 .1.2-.4 0-.1v.3c0 .1 0 0 0 0a1.4 1.4 0 00.1-.2v.2a2.6 2.6 0 00-.1.4v-.2h.2a1 1 0 000-.3l-.1.2a2.3 2.3 0 000-.4.9.9 0 000-.2s0 .3.2-.1v.8l-.1.2v.1s.1 0 0-.2c0 0 .2-.8.3-.7s-.1.4-.1.5V33v.1c0 .1 0 0 0 0v.4l.1-.4-.1.5.2-.7c.1-.3 0-.2 0-.4v.6a2 2 0 000-.3 3.4 3.4 0 000 .6s0-.3 0 0 0 .1 0 0v-.5l-.1.8a2.8 2.8 0 00.1-.7l.1-.1v.2l.1-.3-.2.8s0 .1 0 0h.1c.1 0 0 .2 0 0v-.2.3H45c.1 0 0 .1 0 0h.1c.1 0 0 0 0 0h.2c0 .2.2.1.2.1l.2.1.2-.4a3 3 0 01.1-.4 2.4 2.4 0 01.1-.3l.2-.6v.1c0 .1.1-.4 0 0 0 .2 0 0 0 0a1.9 1.9 0 01-.2.5 2.3 2.3 0 000 .2l-.1.2c-.1 0-.2.5 0 .2l-.1.5s0 .1.1 0v-.3.1a1.5 1.5 0 00.1-.3s-.1.5 0 .4c0 .3 0 0 0 0v.2h.1l.1-.2a1.3 1.3 0 010 .2l.1-.1v.1l.1-.4v-.1.5c-.1.2 0 0 0 0 0 .2.1.2.2.2V34l.2-.2-.1.3s0 .1 0 0V34a2.1 2.1 0 01.3-.4v.2a1 1 0 000-.3c0-.2 0 0 .1-.1v.3a.7.7 0 010-.2 2 2 0 00-.2.5s.1-.3.1-.1v.3c0-.1 0-.4 0 0v.2a3.8 3.8 0 000-.4c.1-.2.2-.4 0 0a3.4 3.4 0 000 .4v-.2.2l.1-.2v.2l.1-.3v.4a.7.7 0 000-.3l.1-.2a1.5 1.5 0 000-.2l.1-.4a.3.3 0 000-.1.5.5 0 010 .1v-.2s-.2.1 0-.1a2.2 2.2 0 000-.4l.2-.2v-.6c0-.2 0 .1.2-.1v.1c0 .1 0 0 0 0l-.1.3V32.4l-.1.2c-.2.3-.1.4 0 .2V33c0 .1 0 .3-.2.5s0 .3 0 .4a2.9 2.9 0 00-.2.3l.1-.1c0-.1 0-.1 0 0a1.2 1.2 0 000 .2l.1-.2c.1 0 0 .2 0 .2h.1c.1 0 0-.2 0-.2v.1c0-.4 0 0 0 0l.1-.2a.7.7 0 000 .3l.1-.1c.1-.1 0 .3 0 .2l.2-.6v.1c0 .1 0 .3 0 0v.4a.8.8 0 000-.3l.2-.3v.4l-.1.3.3-.7v-.4a2.2 2.2 0 010-.2l.1-.4a1.4 1.4 0 010-.1 4.7 4.7 0 00.2-.5v-.5.3a2.4 2.4 0 01-.2.4c0 .1 0 0 0 0 0-.1 0 0 0 0s0-.2 0 0v.1c0 .1 0 0 0 0a2 2 0 00-.3.7c0-.2 0 .2 0 0v-.1l-.1.6-.1.2a1.2 1.2 0 000-.3l-.2.5c0 .1 0 0 0 0V34a2.4 2.4 0 01.3-.6.7.7 0 000-.3l.1-.3-.1.4v-.5c0-.2 0 .1.1.1v-.2a1.9 1.9 0 01.1-.3v.2c.1-.3 0 0 0 0l.1-.2c.1-.2.1 0 .1 0a2 2 0 00.2-.5s0-.2 0 0v-.3c0-.3-.2.4-.2.4a2.2 2.2 0 010-.4.7.7 0 000-.2c0 .3 0 .6-.2 1s0-.4 0-.4v0a1 1 0 010-.3c.1-.3 0 .2 0 .1v-.3.2c0 .2 0 0 0 0l-.1.5v.1a2.8 2.8 0 01-.2.5v-.3-.3c0-.3 0 0 0 0l.1-.2a1.8 1.8 0 00.1-.4.7.7 0 000 .2 2.3 2.3 0 00.1-.4v.3c-.2.3-.2.1-.2 0s-.1.2 0-.1V31h.1a.2.2 0 010 .1V31.2a1.5 1.5 0 00.1-.4v-.1a.8.8 0 010 .2v-.2h-.1l-.1.2H48c-.1.1-.1.4 0 .2l-.2.3a.8.8 0 01.2-.3V31v.5l-.3.7v-.2s-.2.9 0 .6c0 0 0-.2 0 0v.2s0 .3-.2.3 0 .4 0 .5a.7.7 0 010-.2V33a3.8 3.8 0 000-.4v0a3.6 3.6 0 00-.2.4V33a1.4 1.4 0 00.1-.3.5.5 0 010-.3 4.1 4.1 0 01.3-.4.7.7 0 000-.5v.2l-.1.2s0-.6.1-.5 0 0 .1-.1a.4.4 0 000-.2s0-.1 0 0v.2a1.3 1.3 0 01-.2.3.4.4 0 010-.2s0 .1 0 0V31v.2a3.2 3.2 0 01.1-.4v-.1a.8.8 0 000-.2c0 .1 0 0 0 0l-.1.1v-.2h-.2v.2a1.9 1.9 0 01-.2.4 1.9 1.9 0 000 .3v-.2s.1-.2 0 0l.2-.4a1.3 1.3 0 000 .3 2.1 2.1 0 00.1-.4V31.3l-.2.2c-.2.2 0 0 0 .2a2 2 0 01-.2.3 2.6 2.6 0 00.1-.5v0a.8.8 0 000 .3c0-.2 0-.3 0 0a2.3 2.3 0 000-.6c0-.1 0 0 0 0v.1l-.2.4a1.6 1.6 0 000 .6h-.2a3.4 3.4 0 00.1-.4v0c0 .1-.1 0-.2 0a.3.3 0 010-.1.4.4 0 000-.1c0-.1.1-.2.2-.1v0a2.3 2.3 0 00.1-.3v.1s0-.1 0 0l-.1.1s0-.2-.1 0 0 .1 0 0v-.1l.1-.4-.2.5v.1c0 .1 0 0 0 0a1.3 1.3 0 010-.2c0 .2-.3 1.2-.2.5a1.9 1.9 0 010-.3l.1-.3a.8.8 0 010 .2v-.2s.2-.6.1-.3a1 1 0 000 .3l.2-.4c0 .3-.1.4 0 .1v-.4a.2.2 0 010 .2c0-.2 0-.3 0 0 0-.2 0-.2 0 0 .1-.4 0-.1 0-.1v-.1l-.2.3s0-.2 0 0V31l-.2.2V31c.1-.1 0-.1 0-.2l.1-.2-.1.3v-.2a2.6 2.6 0 000 .5.9.9 0 01-.2.3v-.2-.5s0 .1 0 0 .2-.4 0-.2 0 .6-.1.5a1 1 0 010 .2V31a1.5 1.5 0 000 .2v.2a.3.3 0 000 .1.7.7 0 010 .2l-.2.3v-.1-.2l.1-.3c.1 0 0 0 0 .1a.8.8 0 000-.1v.4c0-.2 0 0-.2.1s0 .2 0 0a2.8 2.8 0 01-.1.7v-.3a1.2 1.2 0 000-.4 2.2 2.2 0 010 .2l-.1.3c-.1 0 0 0 0 .1a1.7 1.7 0 00-.1.3v-.1c0-.1 0 0 0 0a.3.3 0 000-.2s.1-.2.1 0a3.3 3.3 0 01-.2.5v.5l-.1.2v0-.3s0 .2 0 0l.1-.3.1-.3c0 .1 0-.2 0 0l-.2.4v.1l.1-.6a2.5 2.5 0 01.2-.5 4.3 4.3 0 010-.4 1.3 1.3 0 01.2-.3 2.3 2.3 0 00-.1.3v.1a1.1 1.1 0 000 .2l-.2.2a1.3 1.3 0 000 .3 1.3 1.3 0 010 .2 3.8 3.8 0 01.1-.5v.3a1.3 1.3 0 000-.3 5.6 5.6 0 01.2-.6l-.1.3v-.2.1l.2-.4c0 .1 0 .3 0 0a3.2 3.2 0 00.1-.4 3.4 3.4 0 00-.2.5v-.3-.2c0-.2.3-.2.2 0v-.2a.6.6 0 00.2-.2c0-.2 0-.4 0 0v-.2l-.1.1c0-.4-.2.2-.2.4v-.6.1c0-.3 0 0 0 0a1.4 1.4 0 010-.1 1 1 0 000 .1v-.2l-.1.1v-.1s-.1.2 0 0a3.7 3.7 0 01-.2.5v-.3l-.1.3v.2c0 .2 0 0 0 0v-.2a.9.9 0 000-.2 1.4 1.4 0 000-.4v.1l-.3 1V31l-.1.2V31a6 6 0 01.2-.6V30.2v.2c0 .3-.2.4-.3.5l.2-.5c0-.1 0-.2 0 0s-.1 0 0 0v-.2 0h-.1l-.1.2v-.3.1c-.1.4 0 0 0 0l-.2.3v-.2 0c0-.3 0 0-.1 0 0-.2 0-.3 0 0V30a.4.4 0 00-.1.2v.4l-.1.1c-.1.1 0 .2 0 .2h-.2a1.8 1.8 0 01.2-.4v-.1a2.7 2.7 0 000-.3c0-.2 0 0 0 0l-.2.6a1.2 1.2 0 01.6-.5.8.8 0 000-.3v0l-.1.2-.2.9-.2.5c.1-.2.2-.7 0-.6a5 5 0 00-.3.8l.2-.4a2 2 0 010 .5v-.1a3 3 0 000-.4l.1-.2v.2l-.1.5-.1.2c-.1 0 0-.1 0-.2l-.2.3a1.7 1.7 0 000-.4v.3a5.2 5.2 0 010-.6v.3l.1-.5v.4a8.5 8.5 0 00.3-.9 2.7 2.7 0 01.1-.3v-.2.2a1.3 1.3 0 010 .2v-.2-.3.3c0 .3-.2.3-.3.4v.4c0-.1 0-.2 0 0l-.1-.2c-.1 0 0 0 0 0s0-.2 0 0v-.3c0-.1.1-.3 0-.1a1.8 1.8 0 000 .4c0 .1 0 0 0 0a3.6 3.6 0 01-.3.6v-.3c0-.3 0-.1.1-.2l.2-1v.3a2 2 0 00.1-.4c0-.1 0 0 0 0v.2s0 .6 0 .4a4.5 4.5 0 00.2-.6v-.3l-.2.3v-.2.1c.2-.5 0-.2 0-.2l-.1.6c-.2.5 0 0 0-.2 0 0-.1.2 0 0v-.5.2l-.2.4.1-.3v.5c0 .2-.2.4-.2.3v-.1-.3c0 .1 0 0 0 0v-.2s.1-.3 0-.2c0-.1.1-.2 0-.2v.3l-.1.2v-.3c0-.1 0 0 0 0a1.8 1.8 0 01.1-.2 1 1 0 00-.1.4l-.1.2v.2c0 .2 0 0 0 0l-.2.2a2.1 2.1 0 010 .4l-.1.1-.1.3a3.5 3.5 0 01.1-.5l.2-.6c.2-.3 0-.3 0-.3a2.1 2.1 0 00-.2.4v-.2.5c0 .2 0 .1 0 0l-.1.3v-.4.2a1.4 1.4 0 010-.3v-.2l.2-.5c0-.2 0 0 0 0a.4.4 0 000-.4s0-.1 0 0l-.1.4v-.1l-.2.5a7.4 7.4 0 00.2-.9l-.2.5v-.3.4c-.2.3.1-.8 0-.6l-.1.2c-.1.2 0 .1 0 .2v-.2c0 .2-.2.5-.2.3a.8.8 0 01-.1.4l-.2.7.1-.6v-.3a.2.2 0 00.3-.1 2.4 2.4 0 010-.3.8.8 0 000 .3V29.6a.6.6 0 000-.1V29.8a1 1 0 010 .2l-.1.2V30v.3l.2-1-.1.2v-.2 0h-.1c-.1 0-.2.5-.2.3 0 0 .2-.5 0-.3v.2a4.7 4.7 0 00-.1.5 6.1 6.1 0 01.1-.6v.2l-.2.5s-.1.3 0 0l-.2.4v-.2.1c0 .1 0 0 0 0a2.5 2.5 0 000 .4c0-.1 0 0 0 0a4.4 4.4 0 010-.5 1.4 1.4 0 01.1-.2v-.2a3.2 3.2 0 01.1-.3 2.2 2.2 0 00.2-.4v-.1a1.1 1.1 0 00-.1.1c0-.2-.2-.1-.2-.1a.5.5 0 010 .2.6.6 0 00-.1.2v.1a.8.8 0 010 .3c0-.1 0 0 0 0s-.2.2-.1 0c0 0-.1.1 0 0l.1-.6V29c0 .1 0 0 0 0H42v-.1l-.1.1V29c0 .1 0 0 0 0l-.1.2c-.1 0 0-.1 0-.1v.1c0 .2-.1.4 0 .2a.3.3 0 000-.2V29c0-.1 0 0 0 0h-.2-.1l-.1.3v-.5.1c0 .1 0 0 0 0v-.1l-.2.4v-.2a1.2 1.2 0 000-.2 3.2 3.2 0 00-.1.3v-.4s0 .1 0 0H41l-.2-.1-.2.3a2.7 2.7 0 000-.3s0-.2 0 0l-.1.4c0 .1 0-.1 0 0v.2s0-.2 0 0V29c0-.3 0 0 0 0a4.8 4.8 0 00.2-.5h-.1s0-.2 0 0a1.7 1.7 0 000 .3c-.1 0 0-.4 0-.4s-.2.2-.2 0c.1-.3 0 0-.1 0v-.1l-.2.1c.1-.4 0 0 0-.1s-.2-.2-.3 0c0-.1 0 0 0 0v-.2s-.2.2-.2 0l-.1.3V28s0-.2-.2 0a3.3 3.3 0 00-.1.5v-.2c0-.2 0-.2 0 0V28.1 28c0-.1 0 0 0 0l-.1-.1s0-.2 0 0c0 0-.1.3 0 .1s-.2 0-.2 0a1.7 1.7 0 010-.1v.1l-.1.2a2.4 2.4 0 010-.3l-.1.3V28v-.2l-.1.2v-.2a3.4 3.4 0 00-.1.3v-.3s0 .2 0 0-.2 0-.2 0v-.2a1.4 1.4 0 000 .4v-.4a1.3 1.3 0 01-.1.3v-.1l-.4.2zM46.5 31.8zM44.2 30zM38 27.8s0-.1 0 0zM47.8 31.6z"/><path class="c" d="M47.9 31.6v-.2a.7.7 0 01-.1.2zM42.8 33.2zM55.3 25.1s0 .1.1 0h-.1zM54.4 21c.2-.2-.2 0 0 0zM54.4 21zM54.2 20c-.1 0 0 0 0 0s.1 0 0 0zM55.6 25.4h.2c.2-.1-.2 0-.2 0zM54.4 20.5s-.2 0 0 0zM54.6 21.4zM55.4 24.4h0zM56.3 26.5a1 1 0 00-.3 0 .2.2 0 00.1 0 .4.4 0 00.1 0zM54.3 19.9c-.2 0-.2 0 0 0zM54.4 20.1h-.2.2zM54.4 20.4c.3 0 0 0 0 0zM54.4 20.4zM54.4 20.4zM54.4 20.6a.4.4 0 00.2 0s-.6.1-.2 0zM55.2 22.6h-.1a.4.4 0 00.1 0zM55 22.7h.1zM54.3 19.7h-.1c-.1 0-.1.1 0 0h.1zM54.5 21.1h0zM55.4 22.9a.8.8 0 01-.3 0s-.2.1 0 0h.3zM55.8 25.6h0zM53.7 17zM53.8 17h-.2zM54.8 20.4h-.2.1a.1.1 0 00.1 0zM54.9 22.1a1.4 1.4 0 00.2 0l.1-.1-.4.1c0 .1 0 0 0 0zM53.9 17.8h-.1a.9.9 0 00.2 0H54zM55 20.3h-.4.3zM55 21c-.2 0 0 0 0 0zM53.6 15.7zM53.6 15.7c.2 0-.2 0 0 0zM54.9 19.6h-.2zM53.4 15.5h0c.6-.1 0 0 0 0zM53.3 15a1.9 1.9 0 00.2 0h-.2zM55.3 21c.2 0 0 0 0 0zM53.5 14.8c.3-.1 0-.1 0 0zM53.5 14.8zM53.5 14.8zM53.6 15.4s.1 0 0 0zM53.6 15.4c.4-.2-.1 0-.3 0 .5-.1 0 0 0 0a1 1 0 00.3 0zM54.6 18zM55 20h.2-.7.5zM54 15.6zM57 25.7zM54.1 15.7zM53.9 15.8l.1-.1a1.6 1.6 0 01-.3 0 .6.6 0 01.1 0H53.7a.2.2 0 00-.1 0l-.2.2c-.3.2 0 0 .1 0h.3l.1-.1zM54.8 18s-.1 0 0 0zM54.4 15.7H54h.2zM54.3 15.7s.1 0 0 0zM55 18c.1 0 0 0 0 0zM54.3 15.5c.2 0 0 0 0 0zM57.5 26c.1 0 0 0 0 0zM57.6 26.5s.1 0 0 0zM57 26.6l.7-.1s.2-.1 0 0a6 6 0 00-.7.1zM57.2 23.7h.1c-.3 0-.4.1-.1 0zM54.8 14.5h0zM57.8 24.5h-.2zM58.6 25.7h0zM55.2 14.3a.3.3 0 00.1 0h-.1zM55.4 14.4l.1-.1-.3.1h.2zM58.6 25.5h.2a.5.5 0 01-.2 0zM55.6 14.3s-.3 0 0 0zM55.5 14.2a.2.2 0 00.2 0h-.2zM57.8 21.1zM58.7 26h.3l.3-.1H59h-.2l-.1.1zM58.9 24.5s-.1 0 0 0l-.2.1c0 .1.1 0 .2 0zM59 24.7h0zM57.6 19.4s-.3 0 0 0zM57.7 21.4h.2l.2-.1-.4.1zM55.9 14.2s-.3.1-.1 0a1.4 1.4 0 00.3 0V14l-.2.1zM58.3 21.7H58h.4zM59.2 26H59.5c.3-.1 0 0-.1 0a1.3 1.3 0 00-.3 0h.1zM59.6 25.9s.1 0 0 0zM57.1 19h.2-.2zM58 21h.2-.1zM59.1 23.6a.6.6 0 00-.2 0h.1zM59.5 25.1zM59.2 25.2a.3.3 0 00.2 0h-.2zM59.5 25.4c.2 0 0 0 0 0-.3 0-.2 0 0 0zM59.5 25.5a.4.4 0 00.2 0l-.4.1zM59.6 25.9h.2-.2s-.1 0 0 0z"/><path class="c" d="M59.4 25.2l-.5.2h.3c.3 0 .4 0 0 0H59.6c.2 0-.2-.1 0-.1s0-.2-.1-.1zM57.8 19.6h-.1.1zM57.6 19.6l-.4.1h.4l.2-.1c.2 0 0-.1 0-.1l-.5.1zM58 21h-.1a3 3 0 00.3-.1c.1 0 .3-.1 0 0l-.3.1zM58.4 21.1c.1 0 .1-.1-.2 0h.2zM58.2 21.2h0zM58.4 21.1zM58.3 21.3a.4.4 0 00.2 0 1.2 1.2 0 00-.3 0zM56.1 14.2h.2a.4.4 0 00-.2 0zM57.8 20.2h-.1.5a2.5 2.5 0 01-.4 0z"/><path class="c" d="M58 20.2H58a.7.7 0 00.3 0H58zM58.2 20.2c-.1 0 0 0 0 0zM58.3 20.4h-.1c-.1 0 0 0 0 0zM58.5 21c0-.1-.2 0 0 0zM58.1 22.6l.3-.1a.4.4 0 00.2 0h.3-.5-.3z"/><path class="c" d="M58.7 22.5c.1 0-.4.1-.4 0-.1.2.6 0 .6 0s0-.1 0 0h-.2zM59.2 23.6s.1 0 0 0zM59.3 24.7c-.3.1.3 0 .2 0h-.3.1zM57.9 19.4h.1-.1zM58.2 19.8h0zM59.3 24zM58.6 24.1l.4-.1h-.2.1l-.2.2h.2-.2.3a2.5 2.5 0 00.4-.1c.1 0 0-.1-.1 0l.2-.1-.7.2h.2a1.3 1.3 0 00.4-.2h-.1a5.4 5.4 0 00-.7.1zM56.5 14zM56.6 14zM56.6 14c.2 0-.3 0 0 0zM56.5 14h.1s-.2 0 0 0zM54 16zM54.2 20.1zM54 18.6zM54.6 21zM54 15.8z"/><path class="c" d="M56.6 14l-.7.3h-.1l-.3.1a1 1 0 01.2 0H55l-.4.2a3.1 3.1 0 00-.3 0 3.5 3.5 0 00-.7.2h-.2a1.2 1.2 0 01.2 0h.4c.3-.2.2 0-.2 0a2.3 2.3 0 00-.4.1h.3a1.8 1.8 0 01-.5.1h.1-.2c-.2 0 0 0 0 0h.3a.5.5 0 01.3 0h-.3c-.3 0-.3.2-.2.2h.4s.4-.1 0 0h.3-.1l-.2.1-.3.1-.2.1h.5-.4-.2s-.2 0-.2.2-.1 0 0 0l.4-.1.1-.1.6-.2h.2c.2 0 .4-.1.4 0s-.3 0 0 0 .1 0 0 0h-.3a.2.2 0 01.1 0h.5l-1 .3h.2-.2a3 3 0 01-.4.2h-.1.4c-.3 0 0 0 0 0l-.4.2a1.7 1.7 0 00.3-.1l.3-.1h.3-.2a1.7 1.7 0 00-.4.1h.2a2.2 2.2 0 00-.4.2 1.7 1.7 0 01.3-.1 2.9 2.9 0 01-.3 0h0a1.4 1.4 0 00.2 0H54s-.6.1-.5.2h.1l.5-.1c-.3 0-.1 0 0 0a3.3 3.3 0 01-.5.2l.5-.1a.6.6 0 00.3 0H54a1.5 1.5 0 00-.3.1h.2.3a1.1 1.1 0 00-.3 0c-.1.1 0 .2-.2.2h.5-.4c-.3 0-.2.1-.1.2s.2-.1.2-.1h-.2a1.7 1.7 0 01.3-.1h.1l.4-.1h-.3l-.3.2s.3-.1.2 0l-.4.1.3.3h-.3s-.1.2 0 .1c-.3.1 0 0 0 0v.1a1.3 1.3 0 00.2 0 1.8 1.8 0 01.6-.2 4.3 4.3 0 00-.4.2h-.2a1.3 1.3 0 00.4-.1l.4-.1a3 3 0 01-.4.2l-.1.2v-.1h-.3v.1h-.2.5l-.3.2s.4-.1.4 0a1.4 1.4 0 00-.4 0c-.2.1.2 0 .2 0H54a.5.5 0 01.3 0 1.6 1.6 0 00-.3.2h-.1a1.4 1.4 0 00.3 0l-.3.1c0 .1 0 0 .2 0h.1l-.3.1a.9.9 0 01.2 0h.5s.1-.1-.1 0h-.2.5c.2 0 0-.2.2-.2v.1a.5.5 0 01.2 0c.1 0 0 0 0 .1h-.5.2l-.1.1h.2-.1.2l-.2.1a.8.8 0 01-.2 0l-.5.1s.6-.2 0 0h-.3s0 .3.5 0v.1H54a.5.5 0 00-.1.1s0 .1.2 0a1 1 0 00-.2 0h.1c-.3.2 0 .2 0 .2h.2l-.2.1c0 .1 0 0 0 0l-.1.2a6.4 6.4 0 001.2-.3h.2l-.6.2a3.6 3.6 0 00-.7.1c-.2.1 0 0 0 .1h.4l.1-.1a2 2 0 01.2 0l-.7.2h.1s-.2.1 0 .2a.7.7 0 00.3 0h.2l-.6.1h.3l-.2.1h0c.1 0 0 0 0 0h.5l.3-.2h.4a3.3 3.3 0 00-.6.1s0 .1.1 0l-.1.1a3 3 0 00-.6.2 2.2 2.2 0 00.4 0l.3-.1a4 4 0 01-.5.2h-.1.2l.5-.2-.3.1a1 1 0 00.5-.1l.4-.1c-.2 0-.4.1 0 0a1.5 1.5 0 01.3-.1h.2l-.7.1-.3.1h-.2a3.6 3.6 0 00-.7.3l.6-.1.3-.1.2-.1c.2-.1 0 .1 0 .1h-.1l-.2.1-.4.2h0l-.2.1c-.1.1.1 0 .1 0h.2a3.6 3.6 0 01.5-.1h.3l-.2.1c.4-.1-.2.2 0 0a1.4 1.4 0 01-.4.1h.2c.2 0 .1 0 0 0a3 3 0 01-.5.1l-.2.1a.3.3 0 01.2 0 3.7 3.7 0 01.7-.2l-.5.2.6-.2-.3.1-.3.1-.1.1h.3l.4-.2-.2.1c0 .1.4 0 .2 0h-.3-.2a1.8 1.8 0 00-.4.2.3.3 0 00.2 0c.3-.1 0 0 0 0h-.2.3s.1 0 0 0a.3.3 0 00.2 0h.2a2.8 2.8 0 01-.5.1h-.1H55.1l1-.2h-.5l-.4.3a1.6 1.6 0 00-.3 0 2 2 0 01-.3.1h.5l.4-.2s-.3.1-.1 0 .1 0 0 0a1.6 1.6 0 01-.3 0l-.3.2s.7-.2.5 0-.4 0-.5 0c-.5.2.3.1.2 0 0 0 .2 0-.1.2h-.2c-.2 0 .1 0 0 .1h.6s.4-.1.2 0-.3 0 0 0c-.4 0-.5.2-.5 0s-.3.2-.2 0c-.1 0 0 .2 0 .2h.3l-.3.1c0 .1.4 0 .4 0a.8.8 0 01-.3 0v.1h-.1.2a1.8 1.8 0 01.4 0l.5-.2c.4 0 0 .1-.1.1h-.3c-.3 0 0 0 0 .1l-.3.1h.3-.1s.4-.1.1 0h-.3c-.1 0 0 0 0 0a1.2 1.2 0 00.3 0h-.2a2.1 2.1 0 00-.4.1H55.3a2.1 2.1 0 00.3-.1 1 1 0 00.3-.1s-.4.2.1 0l-.2.1-.3.1-.3.1a.5.5 0 01-.1 0l-.2.1h.3l.7-.1-.5.1c0 .1.1 0 .2 0h-.2a3.4 3.4 0 00-.3.1h.3l-.5.1.7-.1.4-.2c-.1 0-.4.1-.3.2s-.4 0-.3 0a2 2 0 00.3 0 2.7 2.7 0 00-.6.2s.3 0 0 0a3.5 3.5 0 01.5-.1l-.7.2a3.2 3.2 0 00.7-.2h.1c-.2 0-.4.2-.1.1h.3l-.9.2a.5.5 0 00.2 0s-.3.1 0 0 0 .2-.1.2v.2h.1s-.2.1 0 .1 0 .2 0 .2v.3a.8.8 0 010 .2h.5a3 3 0 01.4 0 1.8 1.8 0 01.3-.2l.6-.2v.1c0 .1.4 0 0 0-.3 0 0 0 0 0a1.8 1.8 0 01-.5 0l-.3.2H56h-.2l-.4.2h.2c.1 0 0 0 0 0h.3l-.4.2c-.2 0 0 0 0 0h.3H55.5c-.1.1 0 .1.2 0l-.2.1H56.1c.1 0-.1 0 0 0h-.3-.2c-.3.1 0 .1 0 .1-.2.1-.1.2 0 .2h.4-.3s-.1.2 0 .2h.3a1.8 1.8 0 01.5 0h-.2a.9.9 0 00.3 0h.1c.1 0 .1 0 0 0h-.3.2a2.8 2.8 0 00-.5.1h.1l-.3.1s.4 0 0 0-.3 0-.1 0h.4c.1 0 .3 0 0 0l-.5.1h.1s0 .2.2 0c0 0-.5.2-.2.2 0 0 .5-.2.4 0s-.4 0-.4 0a.5.5 0 00.3 0h.4l.4-.2h-.1.1s-.1-.1.1-.2a2.3 2.3 0 00.5 0 .6.6 0 01.3 0l.5-.2h.1l-.4.1-.3.2v-.1c0-.1 0 0-.2 0-.3 0-.4.1-.1 0l-.2.1c0 .1 0 0-.2 0l-.5.2a3 3 0 00-.3.2 3.5 3.5 0 00-.4 0h.2s.1 0 0 0h-.2c0 .2.2 0 .2 0l-.2.2H55.9a.3.3 0 01.1-.1c.3-.1 0 0 0 0h.2a.9.9 0 00-.3.1c0 .1 0 0 .2 0l-.2.1a5.6 5.6 0 00.5-.1l-.4.2H56.5a.8.8 0 01-.2 0l-.4.1c-.2 0 .7-.1.8 0s.3-.2.4-.2l.2-.1c.2-.1 0 0 .1 0h.3l.1-.1.5-.1a3.9 3.9 0 00.5-.2h-.3a2 2 0 01-.5.2h.2s0-.1 0 0a1.4 1.4 0 01-.3 0 2.1 2.1 0 00-.6 0c.2 0-.2.1-.1 0h.2l-.7.1h-.2a1.3 1.3 0 00.3-.1l-.6.2c-.2 0 0 0 .1-.1h-.1.3a2.1 2.1 0 01.6-.2.8.8 0 00.2 0l.4-.1h-.4a3.7 3.7 0 01.4 0c.1 0 0 0 0 0a.5.5 0 00.2 0c.1 0 0 0 0 0a1.4 1.4 0 01.3 0h-.1c.2 0 0 0 0 0H58.8s.2 0 0 0l.2-.2h-.4a2 2 0 01.4 0 .7.7 0 00.2-.2l-1 .2c-.4 0 .3-.1.3-.1a1.3 1.3 0 01.1 0 1.2 1.2 0 01.3 0c.3-.2-.3 0-.2 0l.3-.2c0-.2-.2 0-.2 0-.2 0 0 0 0 0l-.4.2h-.2a2.4 2.4 0 01-.5.1 3.2 3.2 0 00.4 0s0-.2.2-.2l.2-.1h.4c.1 0 .1-.1 0 0a.3.3 0 00-.2 0l.1-.1a1.8 1.8 0 00.4-.1h-.3c-.4.2-.2 0-.1 0-.1 0-.3 0 0 0l.4-.2h.1a.3.3 0 01-.1 0h-.3.2a2.6 2.6 0 00.4 0l.1-.2-.3.1a1.8 1.8 0 01.2 0V24c0-.1-.3 0-.2 0v-.2l-.2.1-.3.1a1 1 0 01.3 0h.2a1.7 1.7 0 01-.4.1l-.7.2c-.2 0 0 0 0 0l-.5.1s.3 0 0 0h-.2l-.2.1-.6.2a.8.8 0 01.3.8h.1a4.3 4.3 0 00.5-.2h-.3.2a2 2 0 00-.4 0h.1a1.6 1.6 0 00.3 0 .5.5 0 01.2-.1 4.3 4.3 0 01.5-.1.7.7 0 00.5-.2h-.3c-.2 0-.3.1-.1 0h.5c0 .1 0 0 .1 0a.3.3 0 00.2-.2s.1 0 0 0h-.2a1.8 1.8 0 01-.4.1H58.8l.2-.2c.1 0-.4.1-.2 0a2.4 2.4 0 01.4 0h.1a.4.4 0 00.2-.1c-.1 0 0 0 0 0h-.2l.1-.1c.1 0 0 0 0 0a.1.1 0 000-.2h-.1-.2a2.2 2.2 0 01-.3.1 1.8 1.8 0 00-.3.1h.2s.2 0 0 0h.5a.8.8 0 00-.3 0 2.6 2.6 0 00.4 0h-.2l-.4.1h-.4a1.8 1.8 0 01-.4.1 2.2 2.2 0 00.5-.1h-.5.5a1 1 0 00-.2 0c.1 0 .2-.1 0 0a2.3 2.3 0 00.5-.2h-.1c-.1 0 0 0 0 0l-.4.1a1.7 1.7 0 00-.6.2v-.1l.4-.1c.2-.1-.2 0-.2 0l.1-.1c-.2 0 0 0 0 0a.3.3 0 01.2-.1s-.1 0 0 0H58.4l-.3.1c0 .1.2 0 .2 0a1.6 1.6 0 00.4 0h-.2s.1 0 0 0h-.1s.2-.2 0-.2h-.1s.1 0 0 0l.5-.1h-.5l-.1.1c-.1.1 0 0 0 0a.8.8 0 01.2-.1c-.2 0-1.2.3-.5 0a1.7 1.7 0 01.3 0l.3-.1a1.2 1.2 0 01-.3 0h.3s.6-.2.3 0a1.4 1.4 0 00-.3 0s.8 0 .5 0-.5.2-.1.1h.4-.1c.2 0 .1 0 0 0 .2 0 0 0 0 0 .3-.1 0 0 0 0H59a2 2 0 00.2-.2 2.7 2.7 0 01-.3.1 2.7 2.7 0 00-.3 0s.5-.1 0 0h-.2l.3-.1H58.8a1 1 0 01.2-.3 2.7 2.7 0 00-.6.2 1 1 0 01-.2 0h.1l.3-.2h.4-.7c.3 0 0 0 .2-.1h-.2l-.1.1-.2.1H58h-.3c-.3 0 0 0 0 0h.5v-.1l-.4.1h-.1c-.1 0-.2 0 0 0a3.5 3.5 0 01-.6.2l.2-.2a1.3 1.3 0 00.4 0h-.3-.3-.4.1c.1 0 0 0 0 0h.3s.2 0 0 0l-.5.1-.5.3h-.4.5c-.1 0-.2 0 0-.1h.2l.3-.1c-.1 0 .1-.1 0-.1l-.5.1H56l.7-.1s-.2 0 0 0a3.3 3.3 0 01.4-.1 3.1 3.1 0 01.4-.2h.3l-.3.1h.1-.2l-.2.2H57a2 2 0 00-.3 0l-.2.1.5-.1-.2.1a1.6 1.6 0 00.3 0 5.6 5.6 0 01.5-.2h-.2l-.4.1a5.3 5.3 0 01.6 0h-.1l.4-.1s-.3 0 0 0a4.5 4.5 0 00.4-.1 3.3 3.3 0 00-.5 0 2.5 2.5 0 01.3 0h.2c.2 0 .2 0 0 0h.2a.4.4 0 00.2 0c.2 0 .4-.1 0 0h.2s.1-.1-.1-.1c.4-.1-.3 0-.4 0l.5-.2h-.1c.2 0 0 0 0 0h.1-.1l.2-.1h-.2l.2-.1h-.1a3.7 3.7 0 01-.4.1c-.2.1 0 0 .2 0 .4-.2 0-.2-.3 0h-.2c-.2 0 0 0 0 0a.6.6 0 00.1 0 .8.8 0 00.2 0 2.1 2.1 0 00.3-.2h-.1c-.1 0 0 0 0 0l-1 .3a1.2 1.2 0 00.3-.1h-.3l.2-.2a5.7 5.7 0 01.7-.1h-.1.3c-.2 0 0-.2-.2 0H58a2.7 2.7 0 00.5 0c.1 0 .2-.1 0 0s-.2 0 0 0v-.1h-.2l.3-.1c0-.1-.1 0-.1 0h-.2l.3-.1h-.2.1c-.4.1 0 0 0 0h-.4l.3-.1H58l.2-.1c.3 0 0 0 0 0 .2 0 .3-.2 0-.1.2 0 .3 0 .2-.1a.4.4 0 00-.1 0h-.2l-.3.2h-.3s-.2 0 0 0a1.7 1.7 0 01.4-.1c.2 0 0 0 .1-.1a1.7 1.7 0 00.4-.1h-.2c.2 0 .1 0 0 0h.1s-1 .2-.7 0a1.5 1.5 0 01.4 0 1 1 0 00.3 0h-.2l.2-.1h-.1-.2l-.9.2-.4.2.5-.3a5.4 5.4 0 00-.8.1h.4a1.9 1.9 0 01-.4.1 2.5 2.5 0 00.5 0s.4-.2.2 0-.3 0-.2 0l-.6.1h-.1.1c.1 0 0 0 0 0H56a2 2 0 00.4-.2h-.1-.3a4.3 4.3 0 01.6-.1l-.2.1.4-.1c.2-.1 0 0-.1 0l-.3.2a6.8 6.8 0 001-.3 2.5 2.5 0 01.3 0l.1-.1h-.1a.9.9 0 01-.3 0h.2l.3-.1h-.2a4.7 4.7 0 00-.5 0l-.3.2s0-.1-.1 0l.1-.2h.1c.1 0 0 0 0 0h.2c.1 0 .3-.1 0-.2a1.5 1.5 0 00-.3.1c-.1 0 0 0 0 0a3 3 0 01-.6.2s.6-.3.2-.2h.3a8.4 8.4 0 01.8-.2 1.4 1.4 0 01-.2.1l.4-.1c0-.1.1 0 0 0a.4.4 0 01-.1 0h-.1l-.3.2a3.6 3.6 0 00.6-.2l.3-.1H58 58a2.7 2.7 0 01.2 0h-.2V21h.3a2 2 0 01-.7.1c-.4.2 0 0 .3 0h-.1a4 4 0 00.5-.2h-.3-.3.3l-.4.2c-.3.1-.5 0-.4 0l.4-.1c-.1 0 0 0 0 0h.1l.2-.1.3-.1c0-.1 0 0-.2 0h-.4a3 3 0 01.3-.1h.2a1.3 1.3 0 00-.5 0 1 1 0 00-.2 0h-.1c-.1 0 0 .1 0 .1a1.6 1.6 0 01-.2 0 1.9 1.9 0 01-.4.2h-.2-.2l.4-.1.6-.2.3-.1H57c-.1 0 0 0 0 0l-.2.1c0 .1.1 0 0 0l-.1.1c-.2 0-.2 0 0 0h-.3l.3-.1h-.2a1.7 1.7 0 01.3 0 .8.8 0 01.2-.2 4 4 0 00.5 0c.1-.1.1 0 .1 0a.4.4 0 00.3-.2h-.4.1a3.8 3.8 0 01-.6 0 5.7 5.7 0 00.9-.1 4.3 4.3 0 00-.4 0h.2-.4l.6-.2h-.3a.6.6 0 01-.2 0h.2-.4a.8.8 0 01-.3.1l-.7.2.5-.2c.1-.1.3-.1.2-.2a.2.2 0 00.2 0h.3a1.5 1.5 0 00-.3 0H57l.6-.2h0-.2l-.2.1H57h.1-.2l1-.2h-.3l.2-.1h-.1v-.1c0-.1 0 0 0 0h-.3l.3-.1h-.2l-.6.1.7-.1h-.3-.5-.2l-.1.1c-.1 0 0 0 0 0a2.4 2.4 0 00-.4.1c.1 0 0 0 0 0l.5-.1.4-.5h.4a1.9 1.9 0 00.4-.2h.1a.5.5 0 01-.1 0v-.3l-.2.1a.7.7 0 00-.2 0h-.1a1 1 0 01-.3.2c.1 0 0 0 0 0s-.2 0 0 0c0 0-.2 0 0-.1l.6-.2h.2v-.1-.2h-.1 0s.2-.1 0-.1h-.1c-.1 0 .1-.1 0-.1h-.2H57.7c.2 0 0 0 0 0v-.2a2 2 0 00-.4 0l.5-.1h-.1-.1c-.1 0 0 0 0-.1s-.2 0 0-.1a3.3 3.3 0 00-.4 0h.2a.8.8 0 00.2 0 2 2 0 00-.4 0l.4-.1c0-.1 0 0 0 0a.3.3 0 000-.3h-.3a2.3 2.3 0 00.3-.1h-.1s.3-.2 0 0c.3-.2-.2 0-.3 0H57s.1 0 0 0h-.3l.3-.1c.3 0 0 0 0 0a4 4 0 00.5-.1s.2-.1 0 0a1.3 1.3 0 00-.3 0s.4 0 .3-.2-.1 0 0 0c.3 0 0 0 0-.1v-.1a1 1 0 00-.1 0c.4-.2 0-.2 0-.2s.1-.2 0-.2h-.2l.2-.2s-.2 0 0 0h-.3l.2-.2c.1 0 0 0 0 0s.1-.2-.1-.1a4.4 4.4 0 00-.5.1h.2c.2 0 .2-.2 0-.1s-.4 0-.1 0c0 0 .6-.2.3-.2s.5-.2 0 0c.2-.1.1-.1.1-.2 0 0 .1 0 0 0H57c.1 0 0 0 0 0l.1-.1H57c.2 0 .3-.1.1-.1h-.3l.3-.1a2 2 0 00-.3 0l.3-.1c0-.1 0 0 .1 0h-.2l.2-.2-.4.1.3-.1c0-.1-.2 0 0 0s0-.2 0-.2h.1-.3.3-.3l.2-.1-.4-.1zM57.6 23.5zM58 20.6zM56.9 14.2zM58.4 24.5z"/><path class="c" d="M58.5 24.6l.1-.1a1 1 0 01-.2 0zM54.5 21z"/><path class="d" d="M98.5 59.6zM106 34.8a.5.5 0 01.5.6 6.2 6.2 0 010 1v.1c.3-.2.4.1.5.2l.2.4a.6.6 0 000 .5.2.2 0 010 .3c-.1.4.2.6.4.8a1 1 0 01.1.6 21.8 21.8 0 00.3 2.6l.3 1.7-.1.6v.2a2.9 2.9 0 01.3.7 1.3 1.3 0 010 .8c.3.7 0 1 .3 1.7v.1h-.2l-1.6.4-.7.2-.4.1-.2.1a.3.3 0 01-.3 0c-.5.2-.8.6-1.3.6a2 2 0 00-.8.5 5 5 0 01-.7.5 2.3 2.3 0 00-.4.4l-.8.8c-.3.2-.6.2-.6.6a.2.2 0 01-.2.1.2.2 0 00-.2.2c-.1.5-.6.8-.7 1.2a1.8 1.8 0 01-.3.8 3 3 0 00-.3.8 6.5 6.5 0 01-.3 1 3.5 3.5 0 00-.2 1.8v1.4a.7.7 0 010 .4v.3a3.3 3.3 0 00.1.6l.2.6a6.4 6.4 0 01.4 1.3c0 .2.2.3.3.5a5.8 5.8 0 001.5 2.2 1 1 0 01.4.6v.1c.4 0 .6.3.9.6a8.2 8.2 0 003.2 1.6 12.8 12.8 0 001.9.4 1.3 1.3 0 01.5.2c.3.1.3.1.1.5a3 3 0 011.8.3.2.2 0 01.1.2l.1.1c.3.4.2.4-.1.6h-.2.2l.4.2h1c.1 0 .3.1.3.3s0 .4-.3.5-.5.2-.7 0h-.2c-.2.1-.5 0-.8.2s-.2.1-.2.3-.2.5-.6.4a12.8 12.8 0 01-3.4-.5 4 4 0 01-1.2-.5l-.8-.2a11.9 11.9 0 01-3.6-2.5 12.7 12.7 0 01-2.5-3l-.6-1a6 6 0 01-.5-1.2 11.7 11.7 0 01-.8-4.3 9.4 9.4 0 010-1.3l.2-2a12.7 12.7 0 01.3-1.3l.5-1.3a15.1 15.1 0 011.2-2.3l1-1.5a4 4 0 01.8-.8 4.5 4.5 0 00.7-.7c.3-.2.5-.7 1-.6 0-.2.3-.3.5-.5l1-.6c.4-.3.2.1.3.1s.3.2.3-.2.3-.4.7-.3h.2a.3.3 0 01.5-.3h.2c-.2-.4 0 0 0-.2v.1c.2.2.3.2.2 0h-.2v-1c0-1.1-.3-2-.4-3a14.2 14.2 0 00-.4-1.9 3 3 0 010-1.3 3.7 3.7 0 00-.2-1.5.6.6 0 010-.5.5.5 0 01.5-.2.4.4 0 01.4.3 3.1 3.1 0 00.4 1 3.2 3.2 0 01.2 1.1l.2 1a.6.6 0 000 .2s0 .1.2 0a15 15 0 01-.2-2.5v-1.4a1.1 1.1 0 010-.3c0-.3.2-.5.5-.5zm4.5 36.6zm-.5-1.7zm-1.9-.6zM95.6 87.2zM110.6 84.3zM112.9 83.9zM112 84zM81.5 89.8zM94.6 87.4zM28 86.2h.1zM61.3 93.6z"/><path class="d" d="M113.4 70.1v.1l.5 2.6c.1.5.2.8 0 .7l.2.7v-.3a1.5 1.5 0 01.2.8V75l.1.3c0 .4 0 0-.1 0 0 .3 0 .7.2 1v.2a17.4 17.4 0 01.5 2.9 1.2 1.2 0 00.1.5 3.3 3.3 0 01.2.5l.2.7a11.5 11.5 0 01.3 2 3.3 3.3 0 000 .4 8.6 8.6 0 00-.8.2l-1.9.2h-.1l-.1.1-.8.1c0-.3-.8 0-1 .1-.6.2-.6.1-.8 0-.5.3.2.2.3.2l-4.1 1a10 10 0 01-2 .3 8.3 8.3 0 00-.9 0h-.2c-.2.2 0 .4-.7.3a1.5 1.5 0 00-.7.1 9.4 9.4 0 01-3.2.5l-.3.1a8.8 8.8 0 00-2 .3h-.2l-.4.1-.5.1h.2c-.3 0-.5.2-.8.1l-.3.1-2.6.4h-.2l-.5.1c-.1.1-.6.3-1.3.4-.5 0-1.4.4-1.6.2l-1.1.2h-.6l-.6.4a15.5 15.5 0 01-2.3.2h-.8c-.5.2-1.2.1-1.7.3s0 .1.2 0a2.4 2.4 0 01-1.6.3h-.3a20.1 20.1 0 00-3 .8H76a44 44 0 01-5.7 1.1h-.3a.3.3 0 01-.2 0H69a39.7 39.7 0 01-4 .8H65a1.9 1.9 0 01-.8.2v.3h.2-.2c-.5.1-.2 0 0 .1-.9 0-1.6.3-2.4.5h-.4a6.2 6.2 0 01-1.3.3l-4.8 1c-2.9.4-5.7 1-8.5 1.5l-5.9 1.1-7 1.3-1.8.4-3.5.7-.9-4.4-1.3-7V88c.5-.7 1-.7 1.6-1 .1 0 .2 0 .2-.7.2.8.4 1.6.5.7 0-.1 0-.2.1 0 0 .5.2.7.2.5 0-.6.2-.1.2-.1.5 0 .7 1 1 2.7l.7 3.8.4 1.8v.1H31.6l.6-.1 2.6-.7 16-3 11.7-2.1c4-.6 7.6-1.4 11.4-2.2l15.7-3 6.4-1.2c3.5-.6 7-1.2 10.4-2l5.4-1v-.1l-.2-1.4a42 42 0 00-.7-3.4 3.7 3.7 0 01-.1-1.4c.2-.7.5-1.2.9-1s.5-.4.8-.4 0-1.2 0-1.5c.3-.9.7-.8 1-1.2zM60 93.8zm19.7-3.9zm6.8-1.1H86zm3.9-.7h-.6l.1.2.5-.2zm4.8-1H95zm9.5-1.7h-.2zm5.5-1.2h-.2zm5-4.1v-.3a1 1 0 000 .1zM69.3 92zM64.2 93zM64 93zM22 63.9zM36 72.3zM36.2 74.6zM36.2 74zM26.5 48.6zM21.6 61.5zM105 35.4zM51.7 43.8z"/><path class="d" d="M27.4 85a10.6 10.6 0 002.8-1c.5-.2.8-.5.7-.3l.6-.4-.3.2a3 3 0 01.8-.6.4.4 0 00.2-.2l.2-.3c.4-.3 0 0 .1 0l.7-.6V81.5h.1a17.5 17.5 0 001.9-2.7 1 1 0 00.2-.5l.1-.8a5.5 5.5 0 01.4-1 3.7 3.7 0 000-.8c.2-.3.2-.7.3-1V74v-.5-.7a2.2 2.2 0 01-.2-.8c-.2-.7 0 .1 0 .3a12.6 12.6 0 00-2.7-5.1l-.7-.8a1.8 1.8 0 00-.3-.3 4.2 4.2 0 01-.5-.4l-.1-.1a1.1 1.1 0 01-.7-.4 1.7 1.7 0 00-.8-.4 28.6 28.6 0 00-3.2-1.2h-.4a5.6 5.6 0 00-1.1-.1H24.6 23l-.6.2H22v-.2l-.1-.1v.5a9.4 9.4 0 01-.3-1.8l-.2-.6-.5-3.3v-.3c0-.2 0-.5-.2-.6a4.3 4.3 0 01-.3-1.5c-.1-.7-.5-1.8-.3-2l-.3-1.6-.2-1.2-.3-1.2h.3l1.6-.4h1.1l1.4-.2.7-.1h.3l2-.4h-.2a4.8 4.8 0 012-.3l.3-.1c1.5-.2 2.4-.6 3.8-.8.3-.1.7-.2.8-.1 2.3-.6 4.7-1 7-1.4H42c1.6-.5 3.2-.7 4.9-1h.3a3.7 3.7 0 01.9-.5h.1-.3.3c.7-.1.3 0 .1 0l2.9-.6.6-.1a14.6 14.6 0 011.5-.3l6-1.2 10.5-2 7.4-1.3 8.5-1.7 8.1-1.5 8.7-1.6h.6c.8.2.7.7 1 1 .1 0 .2.2 1 .1-1 .2-2 .5-1 .4.2 0 .3 0 0 .1l-.6.2c.7 0 .1.1.1.2 0 .3-1.4.6-3.4 1l-15.9 3L64.5 44c-4.8 1-9.7 1.9-14.5 2.7s-9.5 1.8-14.2 2.7L22.5 52l.6 3.5.7 4 .2 1 .1.5h.1a13.4 13.4 0 017 1.4 13.8 13.8 0 015.4 4.7 13.4 13.4 0 012.1 8.2 14 14 0 01-4.8 9.6 5.3 5.3 0 01-1.7 1c-.9.2-1.5.1-1.3-.2s-.5-.2-.6-.4-1.3.3-1.7.3c-1 0-.8-.3-1.3-.5zM53 43.6h.1zm-24.4 4.7zm-9 2.5l-.1-.9.6-.1a.3.3 0 00.1 0l-.8.2zm1 5.6v-.7c-.1-.1-.2-.2-.2 0a2 2 0 00.2.7zm1.3 6.9v-.8zm11 3.3l-.2-.2zm3.1 5.3v-.1zm-.6 6.3v.1zM41.8 45.7zM48 44.5zM48.3 44.5z"/><path class="c" d="M150.8 127.6c-12-9.7-31.7-20.2-31.7-20.2-3-3-5-17.1-12-26.7C102.6 75 93.8 61.4 88.4 60c-1.5-.4-3.3-.5-4.3.7-1.8 1.8-.3 5 1.3 7 3.8 5.3 6.4 13 10.2 18.2 0 0-12.2 19.3-7.5 25.2"/><path class="d" d="M110.4 83.7zM87.3 111.8c-.2 0-.4-.2-.7-.6a3.8 3.8 0 01-.6-1.3 8.8 8.8 0 01-.1-3.5v-.5c-.4.5-.3-.8-.4-1-.2-.5.1-1 .3-1.5a6.1 6.1 0 00.4-1.5 2.4 2.4 0 01.2-.9 7.8 7.8 0 00.9-2.8 8.2 8.2 0 01.6-1.8l3.8-7.2L93 87l.5-.8c0-.2.1-.2.2-.3l-.1-.1a.2.2 0 010-.1l-.2-.4a5.4 5.4 0 00-.4-.8l-.3-.6a6.6 6.6 0 01-1.5-2.7c-.7-.9-.8-2-1.5-3a2.2 2.2 0 01-.3-.4 46 46 0 00-2.6-5.2 2.2 2.2 0 01-.3-.9 23.6 23.6 0 00-1.4-2l-.6-1a11.8 11.8 0 01-.7-1.1 19 19 0 01-1.5-3.5 5.3 5.3 0 01-.2-2 4.2 4.2 0 01.8-2 4.4 4.4 0 012.2-1.6 6 6 0 012.6-.2 6.2 6.2 0 011.1.2 6 6 0 011 .5 3.9 3.9 0 01.8.5l.7.4a7.4 7.4 0 001.4 1 1.7 1.7 0 01.5.5 2 2 0 00.6.6 37 37 0 013.6 3.6 43 43 0 013.7 4.5 36.6 36.6 0 012.4 3.2 60.7 60.7 0 003.6 5l1.5 2 1.4 2.1a5 5 0 01.5 1.2 7.2 7.2 0 01.7 1 52.5 52.5 0 013.6 8.2l.9 2a86.6 86.6 0 003.3 8.8 15.4 15.4 0 01.9 2.1l.1.3a1 1 0 00.3 0 1.2 1.2 0 01.3 0l.4.3 1.6.9c3.9 2 7.7 4.3 11.6 6.4l6.3 3.7a16.4 16.4 0 011.6 1.2c1 .8 1 .8.3.8a22.4 22.4 0 015 3.8l.2.5a2 2 0 01.2.3c.3.7.2.7-1 0-.1 0-.5-.4-.5-.2s.4.2.6.4a7.6 7.6 0 011 1c.7.6 1.6 1.2 2.2 1.9.3.3.7.7.5.8s-.5.1-1.2-.4a8 8 0 01-1.6-1.3 3.6 3.6 0 00-.4-.3c-.7-.3-1.3-.9-2-1.2-.3-.1-.5-.3-.7-.1s-.7 0-1.6-.6l-7.8-5-3-2a22 22 0 00-2-1c-3.4-2-6.7-4.1-10.2-6l-1.2-.7-.9-.5-.7-.9a12.2 12.2 0 01-.9-1.4l-.6-1.3c-.8-1.8-1.3-3.6-2-5.3l-2.1-6a60.2 60.2 0 00-5-10.4l-2-2.8-3.2-4.5-4.5-6a65 65 0 00-4.4-5 14.4 14.4 0 00-3.5-2.6 7.7 7.7 0 00-1-.5 6.9 6.9 0 00-1.1-.3 1.4 1.4 0 00-1.2.2l-.1.4a1.1 1.1 0 01-.3.4 10.2 10.2 0 00.4 1.2 13 13 0 001.2 2.1c.3.4 0 .5.2.7s0 .6.5.8 1 1 1.2 1.8a1.1 1.1 0 00.4.7 1.8 1.8 0 01.8 1.2 1.2 1.2 0 00.3.5c.8.6 1 1.9 1.5 2.7.1.2.2.4.1.5s0 .4.2.7a6.4 6.4 0 011.2 1.9l1.6 3.2.9 1.6.4.7.2.4.3.5 1.3 1.9-1.8 2.8-1 1.9c-.8 1.2-1.4 2.5-2 3.7a41.3 41.3 0 00-2.3 5.1l-1.4 3.6a10.8 10.8 0 00-.8 4.2v.7a4.7 4.7 0 010 .5c-.2.4-.3.7-.5.6a1.2 1.2 0 01-.5-1.1 32.6 32.6 0 010-3.3 13.8 13.8 0 01.9-3.3c.3-1 .6-2 1-2.8a2.3 2.3 0 00.2-.5v-.5l-.3.5a45.5 45.5 0 00-2.5 7 11 11 0 00-.2 4.5 7.2 7.2 0 00.3.9c0 .4.2.7.3 1s0 .4-.1.4zm59.8 14a.6.6 0 00.2.2.5.5 0 000-.1c-.2-.1-.2-.1-.2 0zm.4-2zm-5.2-4.4z"/></svg>